<svg width="390" height="181" viewBox="0 0 390 181" fill="none" xmlns="http://www.w3.org/2000/svg">
<rect width="390" height="181" fill="white"/>
<g clip-path="url(#clip0_305_150)">
<path d="M110.5 90.5L103.572 86.5L101.253 93.1192L96.6436 103.667L92.015 87.7442L89.7154 78.5L82.7872 74.5V82.375V86.3125V90.25V94.1875V98.125V106L89.7154 110.125V102.219V99.625L90.5699 102.724L93.1795 112.188L96.6436 114.25L100.108 116.312L102.694 109.888L103.572 107.708V110.406V118.375L110.5 122.5V114.5V106.5V98.5V90.5Z" fill="#0099FF"/>
<path d="M117.428 118.5L110.5 122.5V114.5V106.5V98.5V90.5L117.428 86.5L124.356 82.5L131.285 78.5L138.213 74.5V82.5V86.5L131.285 90.5V86.5L117.428 94.5V110.5L131.285 102.5V98.5L138.213 94.5V98.5V106.5L131.285 110.5L124.356 114.5L117.428 118.5Z" fill="#0000FF"/>
<path d="M131.285 78.5L124.356 82.5L117.428 86.5L110.5 90.5L103.572 86.5L100.108 84.5L96.6436 82.5L93.1795 80.5L89.7154 78.5L82.7872 74.5L89.7154 70.5L96.6436 66.5L103.572 62.5L110.5 58.5L117.428 62.5L120.892 64.5L113.964 68.5L110.5 66.5L103.572 70.5L96.6436 74.5L110.5 82.5L124.356 74.5L120.892 72.5L127.821 68.5L131.285 70.5L138.213 74.5L131.285 78.5Z" fill="#00FFFF"/>
</g>
<path d="M150.084 115.5V69.42H158.34L176.196 90.668L193.988 69.42H202.308V115.5H195.332V78.7L176.196 101.484L156.996 78.7V115.5H150.084ZM217.779 115.5C216.243 115.5 214.835 115.137 213.555 114.412C212.318 113.644 211.315 112.641 210.547 111.404C209.822 110.124 209.459 108.716 209.459 107.18V77.74C209.459 76.204 209.822 74.8173 210.547 73.58C211.315 72.3 212.318 71.2973 213.555 70.572C214.835 69.804 216.243 69.42 217.779 69.42H255.411V76.332H218.739C218.056 76.332 217.48 76.5667 217.011 77.036C216.584 77.4627 216.371 78.0173 216.371 78.7V106.22C216.371 106.903 216.584 107.479 217.011 107.948C217.48 108.375 218.056 108.588 218.739 108.588H255.411V115.5H217.779ZM270.404 115.5C268.868 115.5 267.46 115.137 266.18 114.412C264.943 113.644 263.94 112.641 263.172 111.404C262.447 110.124 262.084 108.716 262.084 107.18V77.74C262.084 76.204 262.447 74.8173 263.172 73.58C263.94 72.3 264.943 71.2973 266.18 70.572C267.46 69.804 268.868 69.42 270.404 69.42H308.036V76.332H271.364C270.681 76.332 270.105 76.5667 269.636 77.036C269.209 77.4627 268.996 78.0173 268.996 78.7V106.22C268.996 106.903 269.209 107.479 269.636 107.948C270.105 108.375 270.681 108.588 271.364 108.588H308.036V115.5H270.404Z" fill="#0066CC"/>
<defs>
<clipPath id="clip0_305_150">
<rect width="64" height="64" fill="white" transform="translate(78.5 58.5)"/>
</clipPath>
</defs>
</svg>
