<svg width="390" height="181" viewBox="0 0 390 181" fill="none" xmlns="http://www.w3.org/2000/svg">
<rect width="390" height="181" fill="white"/>
<path d="M110.5 90.5L104.438 87L102.408 92.7918L98.3757 102.021L94.3256 88.0887L92.3135 80L86.2513 76.5V83.3906V86.8359V90.2812V93.7266V97.1719V104.062L92.3135 107.672V100.754V98.4844L93.0612 101.196L95.3446 109.477L98.3757 111.281L101.407 113.086L103.67 107.464L104.438 105.557V107.918V114.891L110.5 118.5V111.5V104.5V97.5V90.5Z" fill="#0099FF"/>
<path d="M116.562 115L110.5 118.5V111.5V104.5V97.5V90.5L116.562 87L122.624 83.5L128.687 80L134.749 76.5V83.5V87L128.687 90.5V87L116.562 94V108L128.687 101V97.5L134.749 94V97.5V104.5L128.687 108L122.624 111.5L116.562 115Z" fill="#0000FF"/>
<path d="M128.687 80L122.624 83.5L116.562 87L110.5 90.5L104.438 87L101.407 85.25L98.3757 83.5L95.3446 81.75L92.3135 80L86.2513 76.5L92.3135 73L98.3757 69.5L104.438 66L110.5 62.5L116.562 66L119.593 67.75L113.531 71.25L110.5 69.5L104.438 73L98.3757 76.5L110.5 83.5L122.624 76.5L119.593 74.75L125.656 71.25L128.687 73L134.749 76.5L128.687 80Z" fill="#00FFFF"/>
<path d="M146.084 115.5V69.42H154.34L172.196 90.668L189.988 69.42H198.308V115.5H191.332V78.7L172.196 101.484L152.996 78.7V115.5H146.084ZM213.779 115.5C212.243 115.5 210.835 115.137 209.555 114.412C208.318 113.644 207.315 112.641 206.547 111.404C205.822 110.124 205.459 108.716 205.459 107.18V77.74C205.459 76.204 205.822 74.8173 206.547 73.58C207.315 72.3 208.318 71.2973 209.555 70.572C210.835 69.804 212.243 69.42 213.779 69.42H251.411V76.332H214.739C214.056 76.332 213.48 76.5667 213.011 77.036C212.584 77.4627 212.371 78.0173 212.371 78.7V106.22C212.371 106.903 212.584 107.479 213.011 107.948C213.48 108.375 214.056 108.588 214.739 108.588H251.411V115.5H213.779ZM266.404 115.5C264.868 115.5 263.46 115.137 262.18 114.412C260.943 113.644 259.94 112.641 259.172 111.404C258.447 110.124 258.084 108.716 258.084 107.18V77.74C258.084 76.204 258.447 74.8173 259.172 73.58C259.94 72.3 260.943 71.2973 262.18 70.572C263.46 69.804 264.868 69.42 266.404 69.42H304.036V76.332H267.364C266.681 76.332 266.105 76.5667 265.636 77.036C265.209 77.4627 264.996 78.0173 264.996 78.7V106.22C264.996 106.903 265.209 107.479 265.636 107.948C266.105 108.375 266.681 108.588 267.364 108.588H304.036V115.5H266.404Z" fill="#0066CC"/>
</svg>

