<svg width="280" height="280" viewBox="0 0 280 280" fill="none" xmlns="http://www.w3.org/2000/svg">
<path d="M140 140L109.689 122.5L99.5422 151.459L79.3783 197.604L59.1278 127.944L49.0674 87.5L18.7565 70V104.453V121.68V138.906V156.133V173.359V207.812L49.0674 225.859V191.27V179.922L52.8056 193.478L64.2228 234.883L79.3783 243.906L94.5337 252.93L105.85 224.822L109.689 215.286V227.09V261.953L140 280V245V210V175V140Z" fill="#0099FF"/>
<path d="M170.311 262.5L140 280V245V210V175V140L170.311 122.5L200.622 105L230.933 87.5L261.244 70V105V122.5L230.933 140V122.5L170.311 157.5V227.5L230.933 192.5V175L261.244 157.5V175V210L230.933 227.5L200.622 245L170.311 262.5Z" fill="#0000FF"/>
<path d="M230.933 87.5L200.622 105L170.311 122.5L140 140L109.689 122.5L94.5337 113.75L79.3782 105L64.2228 96.25L49.0673 87.5L18.7564 70L49.0673 52.5L79.3782 35L109.689 17.5L140 0L170.311 17.5L185.466 26.25L155.155 43.75L140 35L109.689 52.5L79.3782 70L140 105L200.622 70L185.466 61.25L215.777 43.75L230.933 52.5L261.244 70L230.933 87.5Z" fill="#00FFFF"/>
</svg>
