<svg width="119" height="32" viewBox="0 0 1190 320" fill="none" xmlns="http://www.w3.org/2000/svg">
<path d="M140 160L109.689 142.5L99.5422 171.459L79.3783 217.604L59.1278 147.944L49.0674 107.5L18.7565 90V124.453V141.68V158.906V176.133V193.359V227.812L49.0674 245.859V211.27V199.922L52.8056 213.478L64.2229 254.883L79.3783 263.906L94.5338 272.93L105.85 244.822L109.689 235.286V247.09V281.953L140 300V265V230V195V160Z" fill="#0099FF"/>
<path d="M170.311 282.5L140 300V265V230V195V160L170.311 142.5L200.622 125L230.933 107.5L261.244 90V125V142.5L230.933 160V142.5L170.311 177.5V247.5L230.933 212.5V195L261.244 177.5V195V230L230.933 247.5L200.622 265L170.311 282.5Z" fill="#0000FF"/>
<path d="M230.933 107.5L200.622 125L170.311 142.5L140 160L109.689 142.5L94.5337 133.75L79.3782 125L64.2228 116.25L49.0674 107.5L18.7565 90L49.0674 72.5L79.3782 55L109.689 37.5L140 20L170.311 37.5L185.466 46.25L155.155 63.75L140 55L109.689 72.5L79.3783 90L140 125L200.622 90L185.466 81.25L215.777 63.75L230.933 72.5L261.244 90L230.933 107.5Z" fill="#00FFFF"/>
<path d="M301.92 283V52.6H343.2L432.48 158.84L521.44 52.6H563.04V283H528.16V99L432.48 212.92L336.48 99V283H301.92ZM640.395 283C632.715 283 625.675 281.187 619.275 277.56C613.088 273.72 608.075 268.707 604.235 262.52C600.608 256.12 598.795 249.08 598.795 241.4V94.2C598.795 86.52 600.608 79.5867 604.235 73.4C608.075 67 613.088 61.9867 619.275 58.36C625.675 54.52 632.715 52.6 640.395 52.6H828.555V87.16H645.195C641.782 87.16 638.902 88.3333 636.555 90.68C634.422 92.8133 633.355 95.5867 633.355 99V236.6C633.355 240.013 634.422 242.893 636.555 245.24C638.902 247.373 641.782 248.44 645.195 248.44H828.555V283H640.395ZM903.52 283C895.84 283 888.8 281.187 882.4 277.56C876.213 273.72 871.2 268.707 867.36 262.52C863.733 256.12 861.92 249.08 861.92 241.4V94.2C861.92 86.52 863.733 79.5867 867.36 73.4C871.2 67 876.213 61.9867 882.4 58.36C888.8 54.52 895.84 52.6 903.52 52.6H1091.68V87.16H908.32C904.907 87.16 902.027 88.3333 899.68 90.68C897.547 92.8133 896.48 95.5867 896.48 99V236.6C896.48 240.013 897.547 242.893 899.68 245.24C902.027 247.373 904.907 248.44 908.32 248.44H1091.68V283H903.52Z" fill="#0066CC"/>
</svg>
