<svg width="100" height="534" viewBox="0 0 100 534" fill="none" xmlns="http://www.w3.org/2000/svg">
<mask id="path-1-outside-1_51_41" maskUnits="userSpaceOnUse" x="-1" y="0" width="83" height="530" fill="black">
<rect fill="white" x="-1" width="83" height="530"/>
<path d="M19 25.12H65.96V1.6L76.6 1.6V59.2H65.96V35.76L19 35.76V25.12ZM19 77.4231C19 75.3965 19.5067 73.5565 20.52 71.9031C21.5333 70.2498 22.8667 68.9165 24.52 67.9031C26.1733 66.8898 28.0133 66.3831 30.04 66.3831H54.36C56.3867 66.3831 58.2267 66.8898 59.88 67.9031C61.5333 68.9165 62.8667 70.2498 63.88 71.9031C64.8933 73.5565 65.4 75.3965 65.4 77.4231V102.463C65.4 104.49 64.8933 106.33 63.88 107.983C62.8667 109.69 61.5333 111.023 59.88 111.983C58.2267 112.996 56.3867 113.503 54.36 113.503H36.92V76.8631H30.44C30.1733 76.8631 29.9333 76.9431 29.72 77.1031C29.56 77.3165 29.48 77.5565 29.48 77.8231V113.503H19V77.4231ZM46.36 76.8631V103.023H53.96C54.2267 103.023 54.44 102.916 54.6 102.703C54.8133 102.543 54.92 102.33 54.92 102.063V77.8231C54.92 77.5565 54.8133 77.3165 54.6 77.1031C54.44 76.9431 54.2267 76.8631 53.96 76.8631H46.36ZM19 132.539C19 130.512 19.5067 128.672 20.52 127.019C21.5333 125.365 22.8667 124.032 24.52 123.019C26.1733 122.005 28.0133 121.499 30.04 121.499H54.36C56.3867 121.499 58.2267 122.005 59.88 123.019C61.5333 124.032 62.8667 125.365 63.88 127.019C64.8933 128.672 65.4 130.512 65.4 132.539V168.539H54.92V132.939C54.92 132.672 54.8133 132.432 54.6 132.219C54.44 132.059 54.2267 131.979 53.96 131.979H30.44C30.1733 131.979 29.9333 132.059 29.72 132.219C29.56 132.432 29.48 132.672 29.48 132.939V168.619H19V132.539ZM19 177.011H80.6V187.491H65.4V213.091C65.4 215.117 64.8933 216.957 63.88 218.611C62.8667 220.264 61.5333 221.597 59.88 222.611C58.2267 223.624 56.3867 224.131 54.36 224.131H19V213.651H53.96C54.2267 213.651 54.44 213.544 54.6 213.331C54.8133 213.171 54.92 212.957 54.92 212.691V188.451C54.92 188.184 54.8133 187.944 54.6 187.731C54.44 187.571 54.2267 187.491 53.96 187.491H19V177.011ZM19 232.048H65.4V268.128C65.4 270.155 64.8933 271.995 63.88 273.648C62.8667 275.355 61.5333 276.688 59.88 277.648C58.2267 278.661 56.3867 279.168 54.36 279.168H19V268.688H53.96C54.2267 268.688 54.44 268.581 54.6 268.368C54.8133 268.208 54.92 267.995 54.92 267.728V243.488C54.92 243.221 54.8133 242.981 54.6 242.768C54.44 242.608 54.2267 242.528 53.96 242.528H19V232.048ZM19 298.433C19 296.406 19.5067 294.566 20.52 292.913C21.5333 291.259 22.8667 289.926 24.52 288.913C26.1733 287.899 28.0133 287.393 30.04 287.393H54.36C56.3867 287.393 58.2267 287.899 59.88 288.913C61.5333 289.926 62.8667 291.259 63.88 292.913C64.8933 294.566 65.4 296.406 65.4 298.433V323.473C65.4 325.499 64.8933 327.339 63.88 328.993C62.8667 330.699 61.5333 332.033 59.88 332.993C58.2267 334.006 56.3867 334.513 54.36 334.513H30.04C28.0133 334.513 26.1733 334.006 24.52 332.993C22.8667 332.033 21.5333 330.726 20.52 329.073C19.5067 327.419 19 325.553 19 323.473V298.433ZM29.48 298.833V323.073C29.48 323.339 29.56 323.553 29.72 323.712C29.9333 323.926 30.1733 324.033 30.44 324.033H53.96C54.2267 324.033 54.44 323.926 54.6 323.712C54.8133 323.553 54.92 323.339 54.92 323.073V298.833C54.92 298.566 54.8133 298.326 54.6 298.113C54.44 297.953 54.2267 297.873 53.96 297.873H30.44C30.1733 297.873 29.9333 297.953 29.72 298.113C29.56 298.326 29.48 298.566 29.48 298.833ZM19 353.55C19 351.523 19.5067 349.683 20.52 348.03C21.5333 346.377 22.8667 345.043 24.52 344.03C26.1733 343.017 28.0133 342.51 30.04 342.51H80.68V353.07H30.44C30.1733 353.07 29.9333 353.15 29.72 353.31C29.56 353.523 29.48 353.763 29.48 354.03V362.91H19V353.55ZM19 381.476C19 379.45 19.5067 377.61 20.52 375.956C21.5333 374.303 22.8667 372.97 24.52 371.956C26.1733 370.943 28.0133 370.436 30.04 370.436H54.36C56.3867 370.436 58.2267 370.943 59.88 371.956C61.5333 372.97 62.8667 374.303 63.88 375.956C64.8933 377.61 65.4 379.45 65.4 381.476V406.516C65.4 408.543 64.8933 410.383 63.88 412.036C62.8667 413.743 61.5333 415.076 59.88 416.036C58.2267 417.05 56.3867 417.556 54.36 417.556H30.04C28.0133 417.556 26.1733 417.05 24.52 416.036C22.8667 415.076 21.5333 413.77 20.52 412.116C19.5067 410.463 19 408.596 19 406.516V381.476ZM29.48 381.876V406.116C29.48 406.383 29.56 406.596 29.72 406.756C29.9333 406.97 30.1733 407.076 30.44 407.076H53.96C54.2267 407.076 54.44 406.97 54.6 406.756C54.8133 406.596 54.92 406.383 54.92 406.116V381.876C54.92 381.61 54.8133 381.37 54.6 381.156C54.44 380.996 54.2267 380.916 53.96 380.916H30.44C30.1733 380.916 29.9333 380.996 29.72 381.156C29.56 381.37 29.48 381.61 29.48 381.876ZM0.679999 434.387H11.24V462.307C11.24 462.574 11.3467 462.787 11.56 462.947C11.72 463.16 11.9333 463.267 12.2 463.267H19V437.667C19 435.694 19.5067 433.854 20.52 432.147C21.5333 430.494 22.8667 429.16 24.52 428.147C26.1733 427.134 28.0133 426.627 30.04 426.627H54.36C56.3867 426.627 58.2267 427.134 59.88 428.147C61.5333 429.16 62.8667 430.494 63.88 432.147C64.8933 433.854 65.4 435.694 65.4 437.667V462.787C65.4 464.814 64.8933 466.654 63.88 468.307C62.8667 469.96 61.5333 471.267 59.88 472.227C58.2267 473.24 56.3867 473.747 54.36 473.747H11.72C9.64 473.747 7.77333 473.267 6.12 472.307C4.46667 471.347 3.16 470.014 2.2 468.307C1.18667 466.654 0.679999 464.814 0.679999 462.787V434.387ZM29.48 438.067V462.307C29.48 462.574 29.56 462.787 29.72 462.947C29.9333 463.16 30.1733 463.267 30.44 463.267H53.96C54.2267 463.267 54.44 463.16 54.6 462.947C54.8133 462.787 54.92 462.574 54.92 462.307V438.067C54.92 437.8 54.8133 437.56 54.6 437.347C54.44 437.187 54.2267 437.107 53.96 437.107H30.44C30.1733 437.107 29.9333 437.187 29.72 437.347C29.56 437.56 29.48 437.8 29.48 438.067ZM1.8 489.582H12.36V517.502C12.36 517.769 12.4667 517.982 12.68 518.142C12.84 518.356 13.0533 518.462 13.32 518.462H19V492.862C19 490.889 19.5067 489.049 20.52 487.342C21.5333 485.689 22.8667 484.356 24.52 483.342C26.1733 482.329 28.0133 481.822 30.04 481.822H65.24V492.302H30.44C30.1733 492.302 29.9333 492.382 29.72 492.542C29.56 492.756 29.48 492.996 29.48 493.262V517.502C29.48 517.769 29.56 517.982 29.72 518.142C29.9333 518.356 30.1733 518.462 30.44 518.462H65.24V528.942H12.84C10.8133 528.942 8.97333 528.462 7.32 527.502C5.61333 526.542 4.28 525.209 3.32 523.502C2.30667 521.849 1.8 520.009 1.8 517.982V489.582Z"/>
</mask>
<path d="M19 25.12V24.12H18V25.12H19ZM65.96 25.12V26.12H66.96V25.12H65.96ZM65.96 1.6V0.6H64.96V1.6L65.96 1.6ZM76.6 1.6H77.6V0.6L76.6 0.6V1.6ZM76.6 59.2V60.2H77.6V59.2H76.6ZM65.96 59.2H64.96V60.2H65.96V59.2ZM65.96 35.76H66.96V34.76H65.96V35.76ZM19 35.76H18V36.76H19V35.76ZM19 26.12H65.96V24.12H19V26.12ZM66.96 25.12V1.6L64.96 1.6V25.12H66.96ZM65.96 2.6L76.6 2.6V0.6L65.96 0.6V2.6ZM75.6 1.6V59.2H77.6V1.6L75.6 1.6ZM76.6 58.2H65.96V60.2H76.6V58.2ZM66.96 59.2V35.76H64.96V59.2H66.96ZM65.96 34.76L19 34.76V36.76L65.96 36.76V34.76ZM20 35.76V25.12H18V35.76H20ZM20.52 71.9031L21.3726 72.4257L20.52 71.9031ZM24.52 67.9031L25.0426 68.7557L24.52 67.9031ZM59.88 67.9031L60.4026 67.0505L60.4026 67.0505L59.88 67.9031ZM63.88 107.983L63.0273 107.461L63.0201 107.473L63.88 107.983ZM59.88 111.983L59.3779 111.118L59.3676 111.124L59.3574 111.131L59.88 111.983ZM36.92 113.503H35.92V114.503H36.92V113.503ZM36.92 76.8631H37.92V75.8631H36.92V76.8631ZM29.72 77.1031L29.12 76.3031L29.0057 76.3888L28.92 76.5031L29.72 77.1031ZM29.48 113.503V114.503H30.48V113.503H29.48ZM19 113.503H18V114.503H19V113.503ZM46.36 76.8631V75.8631H45.36V76.8631H46.36ZM46.36 103.023H45.36V104.023H46.36V103.023ZM54.6 102.703L54 101.903L53.8857 101.989L53.8 102.103L54.6 102.703ZM54.6 77.1031L53.8929 77.8102L54.6 77.1031ZM20 77.4231C20 75.5722 20.4601 73.9145 21.3726 72.4257L19.6674 71.3806C18.5532 73.1984 18 75.2207 18 77.4231H20ZM21.3726 72.4257C22.3035 70.9069 23.5237 69.6866 25.0426 68.7557L23.9974 67.0505C22.2096 68.1463 20.7632 69.5927 19.6674 71.3806L21.3726 72.4257ZM25.0426 68.7557C26.5314 67.8432 28.1891 67.3831 30.04 67.3831V65.3831C27.8376 65.3831 25.8153 65.9363 23.9974 67.0505L25.0426 68.7557ZM30.04 67.3831H54.36V65.3831H30.04V67.3831ZM54.36 67.3831C56.2109 67.3831 57.8686 67.8432 59.3574 68.7557L60.4026 67.0505C58.5847 65.9363 56.5624 65.3831 54.36 65.3831V67.3831ZM59.3574 68.7557C60.8763 69.6866 62.0965 70.9069 63.0274 72.4257L64.7326 71.3806C63.6368 69.5927 62.1904 68.1463 60.4026 67.0505L59.3574 68.7557ZM63.0274 72.4257C63.9399 73.9145 64.4 75.5722 64.4 77.4231H66.4C66.4 75.2207 65.8468 73.1984 64.7326 71.3806L63.0274 72.4257ZM64.4 77.4231V102.463H66.4V77.4231H64.4ZM64.4 102.463C64.4 104.314 63.9399 105.972 63.0274 107.461L64.7326 108.506C65.8468 106.688 66.4 104.666 66.4 102.463H64.4ZM63.0201 107.473C62.0904 109.038 60.878 110.247 59.3779 111.118L60.3821 112.848C62.1887 111.799 63.6429 110.341 64.7399 108.494L63.0201 107.473ZM59.3574 111.131C57.8686 112.043 56.2109 112.503 54.36 112.503V114.503C56.5624 114.503 58.5847 113.95 60.4026 112.836L59.3574 111.131ZM54.36 112.503H36.92V114.503H54.36V112.503ZM37.92 113.503V76.8631H35.92V113.503H37.92ZM36.92 75.8631H30.44V77.8631H36.92V75.8631ZM30.44 75.8631C29.957 75.8631 29.5064 76.0133 29.12 76.3031L30.32 77.9031C30.3602 77.8729 30.3897 77.8631 30.44 77.8631V75.8631ZM28.92 76.5031C28.6302 76.8896 28.48 77.3401 28.48 77.8231H30.48C30.48 77.7728 30.4898 77.7434 30.52 77.7031L28.92 76.5031ZM28.48 77.8231V113.503H30.48V77.8231H28.48ZM29.48 112.503H19V114.503H29.48V112.503ZM20 113.503V77.4231H18V113.503H20ZM45.36 76.8631V103.023H47.36V76.8631H45.36ZM46.36 104.023H53.96V102.023H46.36V104.023ZM53.96 104.023C54.5414 104.023 55.0511 103.768 55.4 103.303L53.8 102.103C53.802 102.1 53.8249 102.073 53.8728 102.049C53.8948 102.038 53.9157 102.031 53.9331 102.027C53.9414 102.025 53.9481 102.024 53.9528 102.024C53.9552 102.023 53.9569 102.023 53.9582 102.023C53.9588 102.023 53.9592 102.023 53.9595 102.023C53.9598 102.023 53.96 102.023 53.96 102.023V104.023ZM55.2 103.503C55.6651 103.154 55.92 102.645 55.92 102.063H53.92C53.92 102.063 53.92 102.063 53.92 102.063C53.92 102.062 53.92 102.062 53.9201 102.061C53.9201 102.06 53.9203 102.058 53.9205 102.056C53.921 102.051 53.922 102.045 53.9238 102.036C53.9277 102.019 53.9346 101.998 53.9456 101.976C53.9695 101.928 53.9973 101.905 54 101.903L55.2 103.503ZM55.92 102.063V77.8231H53.92V102.063H55.92ZM55.92 77.8231C55.92 77.2555 55.6811 76.77 55.3071 76.396L53.8929 77.8102C53.9094 77.8268 53.9186 77.8385 53.923 77.8448C53.9274 77.8509 53.9276 77.8524 53.9262 77.8493C53.9247 77.846 53.9228 77.8406 53.9215 77.8341C53.9201 77.8277 53.92 77.8236 53.92 77.8231H55.92ZM55.3071 76.396C54.9264 76.0153 54.4409 75.8631 53.96 75.8631V77.8631C53.9935 77.8631 53.9918 77.8681 53.9689 77.8595C53.9576 77.8552 53.9438 77.8487 53.9292 77.8393C53.9147 77.8299 53.9024 77.8197 53.8929 77.8102L55.3071 76.396ZM53.96 75.8631H46.36V77.8631H53.96V75.8631ZM20.52 127.019L21.3726 127.541L20.52 127.019ZM24.52 123.019L25.0426 123.871L24.52 123.019ZM59.88 123.019L60.4026 122.166L60.4026 122.166L59.88 123.019ZM65.4 168.539V169.539H66.4V168.539H65.4ZM54.92 168.539H53.92V169.539H54.92V168.539ZM54.6 132.219L53.8929 132.926L54.6 132.219ZM29.72 132.219L29.12 131.419L29.0057 131.504L28.92 131.619L29.72 132.219ZM29.48 168.619V169.619H30.48V168.619H29.48ZM19 168.619H18V169.619H19V168.619ZM20 132.539C20 130.688 20.4601 129.03 21.3726 127.541L19.6674 126.496C18.5532 128.314 18 130.336 18 132.539H20ZM21.3726 127.541C22.3035 126.022 23.5237 124.802 25.0426 123.871L23.9974 122.166C22.2096 123.262 20.7632 124.708 19.6674 126.496L21.3726 127.541ZM25.0426 123.871C26.5314 122.959 28.1891 122.499 30.04 122.499V120.499C27.8376 120.499 25.8153 121.052 23.9974 122.166L25.0426 123.871ZM30.04 122.499H54.36V120.499H30.04V122.499ZM54.36 122.499C56.2109 122.499 57.8686 122.959 59.3574 123.871L60.4026 122.166C58.5847 121.052 56.5624 120.499 54.36 120.499V122.499ZM59.3574 123.871C60.8763 124.802 62.0965 126.022 63.0274 127.541L64.7326 126.496C63.6368 124.708 62.1904 123.262 60.4026 122.166L59.3574 123.871ZM63.0274 127.541C63.9399 129.03 64.4 130.688 64.4 132.539H66.4C66.4 130.336 65.8468 128.314 64.7326 126.496L63.0274 127.541ZM64.4 132.539V168.539H66.4V132.539H64.4ZM65.4 167.539H54.92V169.539H65.4V167.539ZM55.92 168.539V132.939H53.92V168.539H55.92ZM55.92 132.939C55.92 132.371 55.6811 131.886 55.3071 131.512L53.8929 132.926C53.9094 132.942 53.9186 132.954 53.923 132.96C53.9274 132.967 53.9276 132.968 53.9262 132.965C53.9247 132.962 53.9228 132.956 53.9215 132.95C53.9201 132.943 53.92 132.939 53.92 132.939H55.92ZM55.3071 131.512C54.9264 131.131 54.4409 130.979 53.96 130.979V132.979C53.9935 132.979 53.9918 132.984 53.9689 132.975C53.9576 132.971 53.9438 132.964 53.9292 132.955C53.9147 132.946 53.9024 132.935 53.8929 132.926L55.3071 131.512ZM53.96 130.979H30.44V132.979H53.96V130.979ZM30.44 130.979C29.957 130.979 29.5064 131.129 29.12 131.419L30.32 133.019C30.3602 132.989 30.3897 132.979 30.44 132.979V130.979ZM28.92 131.619C28.6302 132.005 28.48 132.456 28.48 132.939H30.48C30.48 132.888 30.4898 132.859 30.52 132.819L28.92 131.619ZM28.48 132.939V168.619H30.48V132.939H28.48ZM29.48 167.619H19V169.619H29.48V167.619ZM20 168.619V132.539H18V168.619H20ZM19 177.011V176.011H18V177.011H19ZM80.6 177.011H81.6V176.011H80.6V177.011ZM80.6 187.491V188.491H81.6V187.491H80.6ZM65.4 187.491V186.491H64.4V187.491H65.4ZM63.88 218.611L63.0274 218.088L63.0274 218.088L63.88 218.611ZM59.88 222.611L59.3574 221.758L59.88 222.611ZM19 224.131H18V225.131H19V224.131ZM19 213.651V212.651H18V213.651H19ZM54.6 213.331L54 212.531L53.8857 212.616L53.8 212.731L54.6 213.331ZM54.6 187.731L53.8929 188.438L53.8929 188.438L54.6 187.731ZM19 187.491H18V188.491H19V187.491ZM19 178.011H80.6V176.011H19V178.011ZM79.6 177.011V187.491H81.6V177.011H79.6ZM80.6 186.491H65.4V188.491H80.6V186.491ZM64.4 187.491V213.091H66.4V187.491H64.4ZM64.4 213.091C64.4 214.942 63.9399 216.599 63.0274 218.088L64.7326 219.133C65.8468 217.315 66.4 215.293 66.4 213.091H64.4ZM63.0274 218.088C62.0965 219.607 60.8763 220.827 59.3574 221.758L60.4026 223.463C62.1904 222.367 63.6368 220.921 64.7326 219.133L63.0274 218.088ZM59.3574 221.758C57.8686 222.671 56.2109 223.131 54.36 223.131V225.131C56.5624 225.131 58.5847 224.577 60.4026 223.463L59.3574 221.758ZM54.36 223.131H19V225.131H54.36V223.131ZM20 224.131V213.651H18V224.131H20ZM19 214.651H53.96V212.651H19V214.651ZM53.96 214.651C54.5414 214.651 55.0511 214.396 55.4 213.931L53.8 212.731C53.802 212.728 53.8249 212.7 53.8728 212.676C53.8948 212.665 53.9157 212.658 53.9331 212.654C53.9414 212.653 53.9481 212.652 53.9528 212.651C53.9552 212.651 53.9569 212.651 53.9582 212.651C53.9588 212.651 53.9592 212.651 53.9595 212.651C53.9598 212.651 53.96 212.651 53.96 212.651V214.651ZM55.2 214.131C55.6651 213.782 55.92 213.272 55.92 212.691H53.92C53.92 212.687 53.9216 212.651 53.9456 212.603C53.9566 212.581 53.9692 212.563 53.9807 212.55C53.9863 212.543 53.9911 212.539 53.9945 212.535C53.9963 212.534 53.9976 212.533 53.9986 212.532C53.999 212.531 53.9994 212.531 53.9996 212.531C53.9999 212.531 54 212.531 54 212.531L55.2 214.131ZM55.92 212.691V188.451H53.92V212.691H55.92ZM55.92 188.451C55.92 187.883 55.6811 187.398 55.3071 187.024L53.8929 188.438C53.9094 188.454 53.9186 188.466 53.923 188.472C53.9274 188.478 53.9276 188.48 53.9262 188.477C53.9247 188.473 53.9228 188.468 53.9215 188.462C53.9208 188.459 53.9204 188.456 53.9202 188.454C53.9201 188.453 53.9201 188.452 53.92 188.452C53.92 188.451 53.92 188.451 53.92 188.451C53.92 188.451 53.92 188.451 53.92 188.451C53.92 188.451 53.92 188.451 53.92 188.451C53.92 188.451 53.92 188.451 53.92 188.451C53.92 188.451 53.92 188.451 53.92 188.451H55.92ZM55.3071 187.024C54.9264 186.643 54.4409 186.491 53.96 186.491V188.491C53.9935 188.491 53.9918 188.496 53.9689 188.487C53.9576 188.483 53.9438 188.476 53.9292 188.467C53.9147 188.457 53.9024 188.447 53.8929 188.438L55.3071 187.024ZM53.96 186.491H19V188.491H53.96V186.491ZM20 187.491V177.011H18V187.491H20ZM19 232.048V231.048H18V232.048H19ZM65.4 232.048H66.4V231.048H65.4V232.048ZM63.88 273.648L63.0273 273.126L63.0201 273.138L63.88 273.648ZM59.88 277.648L59.3779 276.783L59.3676 276.789L59.3574 276.796L59.88 277.648ZM19 279.168H18V280.168H19V279.168ZM19 268.688V267.688H18V268.688H19ZM54.6 268.368L54 267.568L53.8857 267.654L53.8 267.768L54.6 268.368ZM54.6 242.768L53.8929 243.475L53.8929 243.475L54.6 242.768ZM19 242.528H18V243.528H19V242.528ZM19 233.048H65.4V231.048H19V233.048ZM64.4 232.048V268.128H66.4V232.048H64.4ZM64.4 268.128C64.4 269.979 63.9399 271.637 63.0274 273.126L64.7326 274.171C65.8468 272.353 66.4 270.331 66.4 268.128H64.4ZM63.0201 273.138C62.0904 274.703 60.878 275.912 59.3779 276.783L60.3821 278.513C62.1887 277.464 63.6429 276.006 64.7399 274.159L63.0201 273.138ZM59.3574 276.796C57.8686 277.708 56.2109 278.168 54.36 278.168V280.168C56.5624 280.168 58.5847 279.615 60.4026 278.501L59.3574 276.796ZM54.36 278.168H19V280.168H54.36V278.168ZM20 279.168V268.688H18V279.168H20ZM19 269.688H53.96V267.688H19V269.688ZM53.96 269.688C54.5414 269.688 55.0511 269.433 55.4 268.968L53.8 267.768C53.802 267.765 53.8249 267.738 53.8728 267.714C53.8948 267.703 53.9157 267.696 53.9331 267.692C53.9414 267.69 53.9481 267.689 53.9528 267.689C53.9552 267.688 53.9569 267.688 53.9582 267.688C53.9588 267.688 53.9592 267.688 53.9595 267.688C53.9598 267.688 53.96 267.688 53.96 267.688V269.688ZM55.2 269.168C55.6651 268.819 55.92 268.31 55.92 267.728H53.92C53.92 267.725 53.9216 267.689 53.9456 267.641C53.9566 267.619 53.9692 267.601 53.9807 267.587C53.9863 267.581 53.9911 267.576 53.9945 267.573C53.9963 267.571 53.9976 267.57 53.9986 267.569C53.999 267.569 53.9994 267.569 53.9996 267.568C53.9999 267.568 54 267.568 54 267.568L55.2 269.168ZM55.92 267.728V243.488H53.92V267.728H55.92ZM55.92 243.488C55.92 242.921 55.6811 242.435 55.3071 242.061L53.8929 243.475C53.9094 243.492 53.9186 243.503 53.923 243.51C53.9274 243.516 53.9276 243.517 53.9262 243.514C53.9247 243.511 53.9228 243.506 53.9215 243.499C53.9208 243.496 53.9204 243.493 53.9202 243.491C53.9201 243.49 53.9201 243.49 53.92 243.489C53.92 243.489 53.92 243.488 53.92 243.488C53.92 243.488 53.92 243.488 53.92 243.488C53.92 243.488 53.92 243.488 53.92 243.488C53.92 243.488 53.92 243.488 53.92 243.488C53.92 243.488 53.92 243.488 53.92 243.488H55.92ZM55.3071 242.061C54.9264 241.68 54.4409 241.528 53.96 241.528V243.528C53.9935 243.528 53.9918 243.533 53.9689 243.524C53.9576 243.52 53.9438 243.514 53.9292 243.504C53.9147 243.495 53.9024 243.485 53.8929 243.475L55.3071 242.061ZM53.96 241.528H19V243.528H53.96V241.528ZM20 242.528V232.048H18V242.528H20ZM20.52 292.913L21.3726 293.435L20.52 292.913ZM24.52 288.913L25.0426 289.765L24.52 288.913ZM59.88 288.913L60.4026 288.06L60.4026 288.06L59.88 288.913ZM63.88 328.993L63.0273 328.47L63.0201 328.482L63.88 328.993ZM59.88 332.993L59.3779 332.128L59.3676 332.134L59.3574 332.14L59.88 332.993ZM24.52 332.993L25.0426 332.14L25.0324 332.134L25.0221 332.128L24.52 332.993ZM29.72 323.712L30.4271 323.005L30.4271 323.005L29.72 323.712ZM54.6 323.712L54 322.912L53.8857 322.998L53.8 323.113L54.6 323.712ZM54.6 298.113L53.8929 298.82L54.6 298.113ZM29.72 298.113L29.12 297.312L29.0057 297.398L28.92 297.513L29.72 298.113ZM20 298.433C20 296.582 20.4601 294.924 21.3726 293.435L19.6674 292.39C18.5532 294.208 18 296.23 18 298.433H20ZM21.3726 293.435C22.3035 291.916 23.5237 290.696 25.0426 289.765L23.9974 288.06C22.2096 289.156 20.7632 290.602 19.6674 292.39L21.3726 293.435ZM25.0426 289.765C26.5314 288.853 28.1891 288.393 30.04 288.393V286.393C27.8376 286.393 25.8153 286.946 23.9974 288.06L25.0426 289.765ZM30.04 288.393H54.36V286.393H30.04V288.393ZM54.36 288.393C56.2109 288.393 57.8686 288.853 59.3574 289.765L60.4026 288.06C58.5847 286.946 56.5624 286.393 54.36 286.393V288.393ZM59.3574 289.765C60.8763 290.696 62.0965 291.916 63.0274 293.435L64.7326 292.39C63.6368 290.602 62.1904 289.156 60.4026 288.06L59.3574 289.765ZM63.0274 293.435C63.9399 294.924 64.4 296.582 64.4 298.433H66.4C66.4 296.23 65.8468 294.208 64.7326 292.39L63.0274 293.435ZM64.4 298.433V323.473H66.4V298.433H64.4ZM64.4 323.473C64.4 325.323 63.9399 326.981 63.0274 328.47L64.7326 329.515C65.8468 327.697 66.4 325.675 66.4 323.473H64.4ZM63.0201 328.482C62.0904 330.048 60.878 331.257 59.3779 332.128L60.3821 333.857C62.1887 332.808 63.6429 331.351 64.7399 329.503L63.0201 328.482ZM59.3574 332.14C57.8686 333.052 56.2109 333.513 54.36 333.513V335.513C56.5624 335.513 58.5847 334.959 60.4026 333.845L59.3574 332.14ZM54.36 333.513H30.04V335.513H54.36V333.513ZM30.04 333.513C28.1891 333.513 26.5314 333.052 25.0426 332.14L23.9974 333.845C25.8153 334.959 27.8376 335.513 30.04 335.513V333.513ZM25.0221 332.128C23.5143 331.252 22.3006 330.064 21.3726 328.55L19.6674 329.595C20.7661 331.388 22.219 332.813 24.0179 333.857L25.0221 332.128ZM21.3726 328.55C20.4627 327.065 20 325.382 20 323.473H18C18 325.723 18.5507 327.773 19.6674 329.595L21.3726 328.55ZM20 323.473V298.433H18V323.473H20ZM28.48 298.833V323.073H30.48V298.833H28.48ZM28.48 323.073C28.48 323.553 28.6322 324.039 29.0129 324.42L30.4271 323.005C30.4366 323.015 30.4468 323.027 30.4562 323.042C30.4655 323.056 30.4721 323.07 30.4763 323.081C30.4849 323.104 30.48 323.106 30.48 323.073H28.48ZM29.0129 324.42C29.3869 324.794 29.8724 325.033 30.44 325.033V323.033C30.4405 323.033 30.4446 323.033 30.451 323.034C30.4575 323.035 30.4628 323.037 30.4661 323.039C30.4693 323.04 30.4678 323.04 30.4617 323.036C30.4554 323.031 30.4436 323.022 30.4271 323.005L29.0129 324.42ZM30.44 325.033H53.96V323.033H30.44V325.033ZM53.96 325.033C54.5414 325.033 55.0511 324.778 55.4 324.312L53.8 323.113C53.802 323.11 53.8249 323.082 53.8728 323.058C53.8948 323.047 53.9157 323.04 53.9331 323.036C53.9414 323.034 53.9481 323.033 53.9528 323.033C53.9552 323.033 53.9569 323.033 53.9582 323.033C53.9588 323.033 53.9592 323.033 53.9595 323.033C53.9598 323.033 53.96 323.033 53.96 323.033V325.033ZM55.2 324.513C55.6651 324.164 55.92 323.654 55.92 323.073H53.92C53.92 323.073 53.92 323.072 53.92 323.072C53.92 323.072 53.92 323.071 53.9201 323.071C53.9201 323.069 53.9203 323.068 53.9205 323.065C53.921 323.061 53.922 323.054 53.9238 323.046C53.9277 323.028 53.9346 323.007 53.9456 322.985C53.9695 322.937 53.9973 322.915 54 322.912L55.2 324.513ZM55.92 323.073V298.833H53.92V323.073H55.92ZM55.92 298.833C55.92 298.265 55.6811 297.779 55.3071 297.405L53.8929 298.82C53.9094 298.836 53.9186 298.848 53.923 298.854C53.9274 298.86 53.9276 298.862 53.9262 298.859C53.9247 298.855 53.9228 298.85 53.9215 298.844C53.9201 298.837 53.92 298.833 53.92 298.833H55.92ZM55.3071 297.405C54.9264 297.025 54.4409 296.873 53.96 296.873V298.873C53.9935 298.873 53.9918 298.877 53.9689 298.869C53.9576 298.865 53.9438 298.858 53.9292 298.849C53.9147 298.839 53.9024 298.829 53.8929 298.82L55.3071 297.405ZM53.96 296.873H30.44V298.873H53.96V296.873ZM30.44 296.873C29.957 296.873 29.5064 297.023 29.12 297.312L30.32 298.913C30.3602 298.882 30.3897 298.873 30.44 298.873V296.873ZM28.92 297.513C28.6302 297.899 28.48 298.349 28.48 298.833H30.48C30.48 298.782 30.4898 298.753 30.52 298.712L28.92 297.513ZM20.52 348.03L21.3726 348.553L20.52 348.03ZM24.52 344.03L25.0426 344.883L25.0426 344.883L24.52 344.03ZM80.68 342.51H81.68V341.51H80.68V342.51ZM80.68 353.07V354.07H81.68V353.07H80.68ZM29.72 353.31L29.12 352.51L29.0057 352.596L28.92 352.71L29.72 353.31ZM29.48 362.91V363.91H30.48V362.91H29.48ZM19 362.91H18V363.91H19V362.91ZM20 353.55C20 351.699 20.4601 350.041 21.3726 348.553L19.6674 347.507C18.5532 349.325 18 351.348 18 353.55H20ZM21.3726 348.553C22.3035 347.034 23.5237 345.814 25.0426 344.883L23.9974 343.177C22.2096 344.273 20.7632 345.72 19.6674 347.507L21.3726 348.553ZM25.0426 344.883C26.5314 343.97 28.1891 343.51 30.04 343.51V341.51C27.8376 341.51 25.8153 342.063 23.9974 343.177L25.0426 344.883ZM30.04 343.51H80.68V341.51H30.04V343.51ZM79.68 342.51V353.07H81.68V342.51H79.68ZM80.68 352.07H30.44V354.07H80.68V352.07ZM30.44 352.07C29.957 352.07 29.5064 352.22 29.12 352.51L30.32 354.11C30.3602 354.08 30.3897 354.07 30.44 354.07V352.07ZM28.92 352.71C28.6302 353.096 28.48 353.547 28.48 354.03H30.48C30.48 353.98 30.4898 353.95 30.52 353.91L28.92 352.71ZM28.48 354.03V362.91H30.48V354.03H28.48ZM29.48 361.91H19V363.91H29.48V361.91ZM20 362.91V353.55H18V362.91H20ZM20.52 375.956L21.3726 376.479L20.52 375.956ZM24.52 371.956L25.0426 372.809L24.52 371.956ZM59.88 371.956L60.4026 371.104L60.4026 371.104L59.88 371.956ZM63.88 412.036L63.0273 411.514L63.0201 411.526L63.88 412.036ZM59.88 416.036L59.3779 415.171L59.3676 415.177L59.3574 415.184L59.88 416.036ZM24.52 416.036L25.0426 415.184L25.0324 415.177L25.0221 415.171L24.52 416.036ZM29.72 406.756L30.4271 406.049L30.4271 406.049L29.72 406.756ZM54.6 406.756L54 405.956L53.8857 406.042L53.8 406.156L54.6 406.756ZM54.6 381.156L53.8929 381.863L54.6 381.156ZM29.72 381.156L29.12 380.356L29.0057 380.442L28.92 380.556L29.72 381.156ZM20 381.476C20 379.625 20.4601 377.968 21.3726 376.479L19.6674 375.434C18.5532 377.252 18 379.274 18 381.476H20ZM21.3726 376.479C22.3035 374.96 23.5237 373.74 25.0426 372.809L23.9974 371.104C22.2096 372.199 20.7632 373.646 19.6674 375.434L21.3726 376.479ZM25.0426 372.809C26.5314 371.896 28.1891 371.436 30.04 371.436V369.436C27.8376 369.436 25.8153 369.989 23.9974 371.104L25.0426 372.809ZM30.04 371.436H54.36V369.436H30.04V371.436ZM54.36 371.436C56.2109 371.436 57.8686 371.896 59.3574 372.809L60.4026 371.104C58.5847 369.989 56.5624 369.436 54.36 369.436V371.436ZM59.3574 372.809C60.8763 373.74 62.0965 374.96 63.0274 376.479L64.7326 375.434C63.6368 373.646 62.1904 372.199 60.4026 371.104L59.3574 372.809ZM63.0274 376.479C63.9399 377.968 64.4 379.625 64.4 381.476H66.4C66.4 379.274 65.8468 377.252 64.7326 375.434L63.0274 376.479ZM64.4 381.476V406.516H66.4V381.476H64.4ZM64.4 406.516C64.4 408.367 63.9399 410.025 63.0274 411.514L64.7326 412.559C65.8468 410.741 66.4 408.719 66.4 406.516H64.4ZM63.0201 411.526C62.0904 413.092 60.878 414.3 59.3779 415.171L60.3821 416.901C62.1887 415.852 63.6429 414.394 64.7399 412.547L63.0201 411.526ZM59.3574 415.184C57.8686 416.096 56.2109 416.556 54.36 416.556V418.556C56.5624 418.556 58.5847 418.003 60.4026 416.889L59.3574 415.184ZM54.36 416.556H30.04V418.556H54.36V416.556ZM30.04 416.556C28.1891 416.556 26.5314 416.096 25.0426 415.184L23.9974 416.889C25.8153 418.003 27.8376 418.556 30.04 418.556V416.556ZM25.0221 415.171C23.5143 414.296 22.3006 413.108 21.3726 411.594L19.6674 412.639C20.7661 414.431 22.219 415.857 24.0179 416.901L25.0221 415.171ZM21.3726 411.594C20.4627 410.109 20 408.426 20 406.516H18C18 408.767 18.5507 410.817 19.6674 412.639L21.3726 411.594ZM20 406.516V381.476H18V406.516H20ZM28.48 381.876V406.116H30.48V381.876H28.48ZM28.48 406.116C28.48 406.597 28.6322 407.083 29.0129 407.463L30.4271 406.049C30.4366 406.059 30.4468 406.071 30.4562 406.086C30.4655 406.1 30.4721 406.114 30.4763 406.125C30.4849 406.148 30.48 406.15 30.48 406.116H28.48ZM29.0129 407.463C29.3869 407.837 29.8724 408.076 30.44 408.076V406.076C30.4405 406.076 30.4446 406.076 30.451 406.078C30.4575 406.079 30.4628 406.081 30.4661 406.082C30.4693 406.084 30.4678 406.084 30.4617 406.079C30.4554 406.075 30.4436 406.066 30.4271 406.049L29.0129 407.463ZM30.44 408.076H53.96L53.96 406.076H30.44V408.076ZM53.96 408.076C54.5414 408.076 55.0511 407.821 55.4 407.356L53.8 406.156C53.802 406.154 53.8249 406.126 53.8728 406.102C53.8948 406.091 53.9157 406.084 53.9331 406.08C53.9414 406.078 53.9481 406.077 53.9528 406.077C53.9552 406.077 53.9569 406.076 53.9582 406.076C53.9588 406.076 53.9592 406.076 53.9595 406.076C53.9598 406.076 53.96 406.076 53.96 406.076L53.96 408.076ZM55.2 407.556C55.6651 407.207 55.92 406.698 55.92 406.116H53.92C53.92 406.116 53.92 406.116 53.92 406.116C53.92 406.115 53.92 406.115 53.9201 406.114C53.9201 406.113 53.9203 406.111 53.9205 406.109C53.921 406.104 53.922 406.098 53.9238 406.089C53.9277 406.072 53.9346 406.051 53.9456 406.029C53.9695 405.981 53.9973 405.958 54 405.956L55.2 407.556ZM55.92 406.116V381.876H53.92V406.116H55.92ZM55.92 381.876C55.92 381.309 55.6811 380.823 55.3071 380.449L53.8929 381.863C53.9094 381.88 53.9186 381.892 53.923 381.898C53.9274 381.904 53.9276 381.906 53.9262 381.902C53.9247 381.899 53.9228 381.894 53.9215 381.887C53.9201 381.881 53.92 381.877 53.92 381.876H55.92ZM55.3071 380.449C54.9264 380.068 54.4409 379.916 53.96 379.916V381.916C53.9935 381.916 53.9918 381.921 53.9689 381.913C53.9576 381.908 53.9438 381.902 53.9292 381.892C53.9147 381.883 53.9024 381.873 53.8929 381.863L55.3071 380.449ZM53.96 379.916H30.44V381.916H53.96V379.916ZM30.44 379.916C29.957 379.916 29.5064 380.066 29.12 380.356L30.32 381.956C30.3602 381.926 30.3897 381.916 30.44 381.916V379.916ZM28.92 380.556C28.6302 380.943 28.48 381.393 28.48 381.876H30.48C30.48 381.826 30.4898 381.796 30.52 381.756L28.92 380.556ZM0.679999 434.387V433.387H-0.320001V434.387H0.679999ZM11.24 434.387H12.24V433.387H11.24V434.387ZM11.56 462.947L12.36 462.347L12.2743 462.233L12.16 462.147L11.56 462.947ZM19 463.267V464.267H20V463.267H19ZM20.52 432.147L19.6673 431.624L19.6601 431.636L20.52 432.147ZM24.52 428.147L25.0426 428.999L25.0426 428.999L24.52 428.147ZM59.88 428.147L59.3574 428.999L59.88 428.147ZM63.88 432.147L64.7399 431.636L64.7326 431.624L63.88 432.147ZM59.88 472.227L59.3779 471.362L59.3676 471.368L59.3574 471.374L59.88 472.227ZM6.12 472.307L5.61786 473.172L5.61786 473.172L6.12 472.307ZM2.2 468.307L3.07157 467.817L3.06239 467.8L3.0526 467.784L2.2 468.307ZM29.72 462.947L29.0129 463.654L29.0129 463.654L29.72 462.947ZM54.6 462.947L54 462.147L53.8857 462.233L53.8 462.347L54.6 462.947ZM54.6 437.347L53.8929 438.054L53.8929 438.054L54.6 437.347ZM29.72 437.347L29.12 436.547L29.0057 436.633L28.92 436.747L29.72 437.347ZM0.679999 435.387H11.24V433.387H0.679999V435.387ZM10.24 434.387V462.307H12.24V434.387H10.24ZM10.24 462.307C10.24 462.888 10.4949 463.398 10.96 463.747L12.16 462.147C12.16 462.147 12.1601 462.147 12.1604 462.147C12.1606 462.147 12.161 462.148 12.1614 462.148C12.1624 462.149 12.1637 462.15 12.1655 462.152C12.1689 462.155 12.1737 462.16 12.1793 462.166C12.1908 462.18 12.2034 462.198 12.2144 462.22C12.2384 462.268 12.24 462.303 12.24 462.307H10.24ZM10.76 463.547C11.1089 464.012 11.6186 464.267 12.2 464.267V462.267C12.2 462.267 12.2002 462.267 12.2005 462.267C12.2008 462.267 12.2012 462.267 12.2018 462.267C12.2031 462.267 12.2048 462.267 12.2072 462.267C12.2119 462.268 12.2186 462.269 12.2269 462.271C12.2443 462.275 12.2652 462.281 12.2872 462.292C12.3351 462.316 12.358 462.344 12.36 462.347L10.76 463.547ZM12.2 464.267H19V462.267H12.2V464.267ZM20 463.267V437.667H18V463.267H20ZM20 437.667C20 435.874 20.4577 434.211 21.3799 432.657L19.6601 431.636C18.5556 433.497 18 435.513 18 437.667H20ZM21.3726 432.669C22.3035 431.151 23.5237 429.93 25.0426 428.999L23.9974 427.294C22.2096 428.39 20.7632 429.836 19.6674 431.624L21.3726 432.669ZM25.0426 428.999C26.5314 428.087 28.1891 427.627 30.04 427.627V425.627C27.8376 425.627 25.8153 426.18 23.9974 427.294L25.0426 428.999ZM30.04 427.627H54.36V425.627H30.04V427.627ZM54.36 427.627C56.2109 427.627 57.8686 428.087 59.3574 428.999L60.4026 427.294C58.5847 426.18 56.5624 425.627 54.36 425.627V427.627ZM59.3574 428.999C60.8763 429.93 62.0965 431.151 63.0274 432.669L64.7326 431.624C63.6368 429.836 62.1904 428.39 60.4026 427.294L59.3574 428.999ZM63.0201 432.657C63.9423 434.211 64.4 435.874 64.4 437.667H66.4C66.4 435.513 65.8444 433.497 64.7399 431.636L63.0201 432.657ZM64.4 437.667V462.787H66.4V437.667H64.4ZM64.4 462.787C64.4 464.638 63.9399 466.295 63.0274 467.784L64.7326 468.829C65.8468 467.012 66.4 464.989 66.4 462.787H64.4ZM63.0274 467.784C62.0994 469.298 60.8857 470.487 59.3779 471.362L60.3821 473.092C62.181 472.047 63.6339 470.622 64.7326 468.829L63.0274 467.784ZM59.3574 471.374C57.8686 472.287 56.2109 472.747 54.36 472.747V474.747C56.5624 474.747 58.5847 474.194 60.4026 473.079L59.3574 471.374ZM54.36 472.747H11.72V474.747H54.36V472.747ZM11.72 472.747C9.80038 472.747 8.10968 472.306 6.62213 471.442L5.61786 473.172C7.43698 474.228 9.47962 474.747 11.72 474.747V472.747ZM6.62213 471.442C5.12704 470.574 3.94629 469.372 3.07157 467.817L1.32842 468.797C2.37371 470.655 3.80629 472.12 5.61786 473.172L6.62213 471.442ZM3.0526 467.784C2.14011 466.295 1.68 464.638 1.68 462.787H-0.320001C-0.320001 464.989 0.233223 467.012 1.3474 468.829L3.0526 467.784ZM1.68 462.787V434.387H-0.320001V462.787H1.68ZM28.48 438.067V462.307H30.48V438.067H28.48ZM28.48 462.307C28.48 462.788 28.6322 463.273 29.0129 463.654L30.4271 462.24C30.4366 462.249 30.4468 462.262 30.4562 462.276C30.4655 462.291 30.4721 462.304 30.4763 462.316C30.4849 462.339 30.48 462.34 30.48 462.307H28.48ZM29.0129 463.654C29.3869 464.028 29.8724 464.267 30.44 464.267V462.267C30.44 462.267 30.44 462.267 30.44 462.267C30.44 462.267 30.44 462.267 30.44 462.267C30.44 462.267 30.44 462.267 30.4401 462.267C30.4401 462.267 30.4402 462.267 30.4402 462.267C30.4404 462.267 30.4406 462.267 30.4409 462.267C30.4415 462.267 30.4423 462.267 30.4433 462.267C30.4454 462.267 30.448 462.268 30.451 462.268C30.4575 462.27 30.4628 462.272 30.4661 462.273C30.4693 462.274 30.4678 462.274 30.4617 462.27C30.4554 462.265 30.4436 462.256 30.4271 462.24L29.0129 463.654ZM30.44 464.267H53.96V462.267H30.44V464.267ZM53.96 464.267C54.5414 464.267 55.0511 464.012 55.4 463.547L53.8 462.347C53.802 462.344 53.8249 462.316 53.8728 462.292C53.8948 462.281 53.9157 462.275 53.9331 462.271C53.9414 462.269 53.9481 462.268 53.9528 462.267C53.9552 462.267 53.9569 462.267 53.9582 462.267C53.9588 462.267 53.9592 462.267 53.9595 462.267C53.9598 462.267 53.96 462.267 53.96 462.267V464.267ZM55.2 463.747C55.6651 463.398 55.92 462.888 55.92 462.307H53.92C53.92 462.303 53.9216 462.268 53.9456 462.22C53.9566 462.198 53.9692 462.18 53.9807 462.166C53.9863 462.16 53.9911 462.155 53.9945 462.152C53.9963 462.15 53.9976 462.149 53.9986 462.148C53.999 462.148 53.9994 462.147 53.9996 462.147C53.9999 462.147 54 462.147 54 462.147L55.2 463.747ZM55.92 462.307V438.067H53.92V462.307H55.92ZM55.92 438.067C55.92 437.499 55.6811 437.014 55.3071 436.64L53.8929 438.054C53.9094 438.07 53.9186 438.082 53.923 438.089C53.9274 438.095 53.9276 438.096 53.9262 438.093C53.9247 438.09 53.9228 438.084 53.9215 438.078C53.9208 438.075 53.9204 438.072 53.9202 438.07C53.9201 438.069 53.9201 438.068 53.92 438.068C53.92 438.067 53.92 438.067 53.92 438.067C53.92 438.067 53.92 438.067 53.92 438.067C53.92 438.067 53.92 438.067 53.92 438.067C53.92 438.067 53.92 438.067 53.92 438.067C53.92 438.067 53.92 438.067 53.92 438.067H55.92ZM55.3071 436.64C54.9264 436.259 54.4409 436.107 53.96 436.107V438.107C53.9935 438.107 53.9918 438.112 53.9689 438.103C53.9576 438.099 53.9438 438.092 53.9292 438.083C53.9147 438.074 53.9024 438.063 53.8929 438.054L55.3071 436.64ZM53.96 436.107H30.44V438.107H53.96V436.107ZM30.44 436.107C29.957 436.107 29.5064 436.257 29.12 436.547L30.32 438.147C30.3602 438.117 30.3897 438.107 30.44 438.107V436.107ZM28.92 436.747C28.6302 437.133 28.48 437.584 28.48 438.067H30.48C30.48 438.017 30.4898 437.987 30.52 437.947L28.92 436.747ZM1.8 489.582V488.582H0.8V489.582H1.8ZM12.36 489.582H13.36V488.582H12.36V489.582ZM12.68 518.142L13.48 517.542L13.3943 517.428L13.28 517.342L12.68 518.142ZM19 518.462V519.462H20V518.462H19ZM20.52 487.342L19.6673 486.82L19.6601 486.832L20.52 487.342ZM24.52 483.342L25.0426 484.195L25.0426 484.195L24.52 483.342ZM65.24 481.822H66.24V480.822H65.24V481.822ZM65.24 492.302V493.302H66.24V492.302H65.24ZM29.72 492.542L29.12 491.742L29.0057 491.828L28.92 491.942L29.72 492.542ZM29.72 518.142L29.0129 518.85L29.0129 518.85L29.72 518.142ZM65.24 518.462H66.24V517.462H65.24V518.462ZM65.24 528.942V529.942H66.24V528.942H65.24ZM7.32 527.502L7.82218 526.638L7.81026 526.631L7.32 527.502ZM3.32 523.502L4.19157 523.012L4.18239 522.996L4.1726 522.98L3.32 523.502ZM1.8 490.582H12.36V488.582H1.8V490.582ZM11.36 489.582V517.502H13.36V489.582H11.36ZM11.36 517.502C11.36 518.084 11.6149 518.594 12.08 518.942L13.28 517.342C13.2827 517.345 13.3105 517.367 13.3344 517.415C13.3584 517.463 13.36 517.499 13.36 517.502H11.36ZM11.88 518.742C12.2289 519.208 12.7386 519.462 13.32 519.462V517.462C13.32 517.462 13.3202 517.462 13.3205 517.463C13.3208 517.463 13.3212 517.463 13.3218 517.463C13.3231 517.463 13.3248 517.463 13.3272 517.463C13.3319 517.463 13.3386 517.464 13.3469 517.466C13.3643 517.47 13.3852 517.477 13.4072 517.488C13.4551 517.512 13.478 517.54 13.48 517.542L11.88 518.742ZM13.32 519.462H19V517.462H13.32V519.462ZM20 518.462V492.862H18V518.462H20ZM20 492.862C20 491.07 20.4577 489.406 21.3799 487.853L19.6601 486.832C18.5556 488.692 18 490.708 18 492.862H20ZM21.3726 487.865C22.3035 486.346 23.5237 485.126 25.0426 484.195L23.9974 482.49C22.2096 483.586 20.7632 485.032 19.6674 486.82L21.3726 487.865ZM25.0426 484.195C26.5314 483.283 28.1891 482.822 30.04 482.822V480.822C27.8376 480.822 25.8153 481.376 23.9974 482.49L25.0426 484.195ZM30.04 482.822H65.24V480.822H30.04V482.822ZM64.24 481.822V492.302H66.24V481.822H64.24ZM65.24 491.302H30.44V493.302H65.24V491.302ZM30.44 491.302C29.957 491.302 29.5064 491.453 29.12 491.742L30.32 493.342C30.3602 493.312 30.3897 493.302 30.44 493.302V491.302ZM28.92 491.942C28.6302 492.329 28.48 492.779 28.48 493.262H30.48C30.48 493.212 30.4898 493.183 30.52 493.142L28.92 491.942ZM28.48 493.262V517.502H30.48V493.262H28.48ZM28.48 517.502C28.48 517.983 28.6322 518.469 29.0129 518.85L30.4271 517.435C30.4366 517.445 30.4468 517.457 30.4562 517.472C30.4655 517.486 30.4721 517.5 30.4763 517.511C30.4849 517.534 30.48 517.536 30.48 517.502H28.48ZM29.0129 518.85C29.3869 519.224 29.8724 519.462 30.44 519.462V517.462C30.44 517.462 30.44 517.462 30.44 517.462C30.44 517.462 30.44 517.462 30.44 517.462C30.44 517.462 30.44 517.462 30.4401 517.462C30.4401 517.462 30.4402 517.462 30.4402 517.462C30.4404 517.463 30.4406 517.463 30.4409 517.463C30.4415 517.463 30.4423 517.463 30.4433 517.463C30.4454 517.463 30.448 517.463 30.451 517.464C30.4575 517.465 30.4628 517.467 30.4661 517.469C30.4693 517.47 30.4678 517.47 30.4617 517.466C30.4554 517.461 30.4436 517.452 30.4271 517.435L29.0129 518.85ZM30.44 519.462H65.24V517.462H30.44V519.462ZM64.24 518.462V528.942H66.24V518.462H64.24ZM65.24 527.942H12.84V529.942H65.24V527.942ZM12.84 527.942C10.9787 527.942 9.3137 527.504 7.82213 526.638L6.81786 528.367C8.63296 529.421 10.648 529.942 12.84 529.942V527.942ZM7.81026 526.631C6.26322 525.761 5.06179 524.559 4.19157 523.012L2.44842 523.993C3.49821 525.859 4.96345 527.324 6.82974 528.374L7.81026 526.631ZM4.1726 522.98C3.26011 521.491 2.8 519.833 2.8 517.982H0.8C0.8 520.185 1.35322 522.207 2.4674 524.025L4.1726 522.98ZM2.8 517.982V489.582H0.8V517.982H2.8Z" fill="white" mask="url(#path-1-outside-1_51_41)"/>
</svg>
