<svg width="349" height="445" viewBox="0 0 349 445" fill="none" xmlns="http://www.w3.org/2000/svg">
<g clip-path="url(#clip0_78_43)">
<path d="M3.43188 236.966V179.366L12.318 171.91L28.313 183.368L44.2467 145.118L53.1941 137.611V195.211L45.0434 202.05V159.81L28.313 199.848L11.5213 188.018V230.178L3.43188 236.966ZM61.2673 188.436V142.036L69.2954 135.3V181.7L61.2673 188.436ZM61.2673 137.396V126.836L69.2954 120.1V130.66L61.2673 137.396ZM84.6537 168.813C83.1011 170.116 81.6916 170.792 80.4251 170.841C79.1586 170.89 78.1372 170.414 77.3609 169.412C76.5847 168.41 76.1965 166.896 76.1965 164.869V140.549C76.1965 138.523 76.5847 136.357 77.3609 134.052C78.1372 131.747 79.1586 129.557 80.4251 127.481C81.6916 125.405 83.1011 123.716 84.6537 122.413L112.231 99.2725V109.752L84.9601 132.636C84.7558 132.807 84.5719 133.068 84.4085 133.419C84.286 133.681 84.2247 133.946 84.2247 134.213V157.733C84.2247 157.999 84.286 158.188 84.4085 158.299C84.5719 158.321 84.7558 158.247 84.9601 158.076L112.293 135.141V145.621L84.6537 168.813ZM119.676 139.426V104.066C119.676 102.039 120.064 99.8735 120.84 97.5688C121.616 95.2641 122.638 93.0737 123.904 90.9976C125.212 88.8873 126.621 87.1979 128.133 85.9294L147.866 69.3712V79.8512L128.439 96.1523C128.235 96.3237 128.051 96.5847 127.888 96.9351C127.765 97.198 127.704 97.4627 127.704 97.7294V132.689L119.676 139.426ZM161.435 104.385C159.883 105.688 158.473 106.364 157.207 106.414C155.94 106.463 154.919 105.987 154.142 104.985C153.366 103.983 152.978 102.468 152.978 100.442V76.1218C152.978 74.0952 153.366 71.9295 154.142 69.6248C154.919 67.3201 155.94 65.1297 157.207 63.0536C158.473 60.9776 159.883 59.2882 161.435 57.9854L180.617 41.89C182.17 40.5873 183.579 39.9113 184.846 39.8618C186.153 39.7782 187.174 40.2544 187.91 41.2907C188.686 42.2927 189.074 43.807 189.074 45.8337V70.1537C189.074 72.1803 188.686 74.346 187.91 76.6507C187.174 78.9211 186.173 81.0944 184.907 83.1704C183.64 85.2465 182.21 86.953 180.617 88.29L161.435 104.385ZM161.742 93.6483L180.311 78.0672C180.515 77.8957 180.678 77.6786 180.801 77.4158C180.964 77.0653 181.046 76.7567 181.046 76.4901V52.9701C181.046 52.7034 180.964 52.5586 180.801 52.5358C180.678 52.4253 180.515 52.4557 180.311 52.6272L161.742 68.2083C161.537 68.3797 161.354 68.6407 161.19 68.9911C161.068 69.254 161.006 69.5187 161.006 69.7854V93.3054C161.006 93.5721 161.068 93.7606 161.19 93.8711C161.354 93.894 161.537 93.8197 161.742 93.6483ZM11.9503 329.818C10.3978 331.121 8.96783 331.814 7.66044 331.898C6.39392 331.947 5.37253 331.471 4.59627 330.469C3.82001 329.414 3.43188 327.873 3.43188 325.846V290.486C3.43188 288.459 3.82001 286.294 4.59627 283.989C5.37253 281.631 6.39392 279.414 7.66044 277.338C8.96783 275.227 10.3978 273.521 11.9503 272.218L47.4335 242.444V253.084L13.6662 281.418C13.0125 281.967 12.4814 282.653 12.0729 283.475C11.7052 284.264 11.5213 285.112 11.5213 286.018V316.738C11.5213 317.592 11.7052 318.131 12.0729 318.355C12.4814 318.493 13.0125 318.287 13.6662 317.738L47.4335 289.404V300.044L11.9503 329.818ZM63.1996 286.815C61.6471 288.118 60.2376 288.794 58.9711 288.843C57.7045 288.893 56.6831 288.416 55.9069 287.414C55.1306 286.412 54.7425 284.898 54.7425 282.871V258.551C54.7425 256.525 55.1306 254.359 55.9069 252.054C56.6831 249.75 57.7045 247.559 58.9711 245.483C60.2376 243.407 61.6471 241.718 63.1996 240.415L82.3814 224.32C83.9339 223.017 85.3434 222.341 86.6099 222.291C87.9173 222.208 88.9387 222.684 89.6741 223.72C90.4504 224.722 90.8385 226.236 90.8385 228.263V252.583C90.8385 254.61 90.4504 256.775 89.6741 259.08C88.9387 261.351 87.9378 263.524 86.6712 265.6C85.4047 267.676 83.9747 269.383 82.3814 270.72L63.1996 286.815ZM63.506 276.078L82.075 260.497C82.2792 260.325 82.4427 260.108 82.5652 259.845C82.7286 259.495 82.8104 259.186 82.8104 258.92V235.4C82.8104 235.133 82.7286 234.988 82.5652 234.965C82.4427 234.855 82.2792 234.885 82.075 235.057L63.506 250.638C63.3018 250.809 63.1179 251.07 62.9545 251.421C62.8319 251.683 62.7706 251.948 62.7706 252.215V275.735C62.7706 276.002 62.8319 276.19 62.9545 276.301C63.1179 276.323 63.3018 276.249 63.506 276.078ZM98.5837 257.124V210.724L142.647 173.751C144.24 172.414 145.67 171.721 146.936 171.671C148.203 171.622 149.204 172.115 149.939 173.152C150.716 174.154 151.104 175.668 151.104 177.695V213.055L143.137 219.74V184.78C143.137 184.513 143.055 184.368 142.892 184.345C142.728 184.269 142.544 184.317 142.34 184.488L129.654 195.133C129.45 195.304 129.266 195.565 129.103 195.915C128.98 196.178 128.919 196.443 128.919 196.71V231.67L120.83 238.458V203.498C120.83 203.231 120.748 203.086 120.584 203.063C120.462 202.953 120.299 202.983 120.094 203.155L107.347 213.851C107.143 214.022 106.959 214.283 106.796 214.633C106.673 214.896 106.612 215.161 106.612 215.428V250.388L98.5837 257.124ZM157.323 226.236V161.436L184.961 138.245C186.514 136.942 187.923 136.266 189.19 136.216C190.497 136.133 191.519 136.609 192.254 137.645C193.03 138.647 193.419 140.162 193.419 142.188V166.508C193.419 168.535 193.03 170.701 192.254 173.005C191.519 175.276 190.497 177.466 189.19 179.576C187.923 181.653 186.514 183.342 184.961 184.645L165.351 201.1V219.5L157.323 226.236ZM166.086 190.003L184.655 174.422C184.859 174.25 185.023 174.033 185.145 173.77C185.309 173.42 185.39 173.111 185.39 172.845V149.325C185.39 149.058 185.309 148.913 185.145 148.89C185.023 148.78 184.859 148.81 184.655 148.982L166.086 164.563C165.882 164.734 165.698 164.995 165.535 165.346C165.412 165.609 165.351 165.873 165.351 166.14V189.66C165.351 189.927 165.412 190.115 165.535 190.226C165.698 190.249 165.882 190.174 166.086 190.003ZM207.64 165.615C206.088 166.918 204.658 167.611 203.35 167.695C202.084 167.744 201.062 167.268 200.286 166.266C199.551 165.229 199.183 163.698 199.183 161.671V126.311L207.211 119.575V154.535C207.211 154.802 207.272 154.99 207.395 155.101C207.558 155.123 207.742 155.049 207.947 154.878L226.516 139.297C226.72 139.125 226.883 138.908 227.006 138.645C227.169 138.295 227.251 137.986 227.251 137.72V102.76L235.279 96.0231V131.383C235.279 133.41 234.891 135.575 234.115 137.88C233.379 140.151 232.378 142.324 231.112 144.4C229.845 146.476 228.415 148.183 226.822 149.52L207.64 165.615ZM250.16 129.936C248.608 131.239 247.198 131.915 245.932 131.964C244.665 132.014 243.644 131.537 242.868 130.536C242.091 129.534 241.703 128.019 241.703 125.993V76.3925L249.731 69.6561V83.8961L263.582 72.2745V82.7545L249.731 94.3761V118.856C249.731 119.123 249.793 119.311 249.915 119.422C250.079 119.445 250.263 119.37 250.467 119.199L263.582 108.195V118.675L250.16 129.936ZM278.135 106.463C276.582 107.765 275.173 108.442 273.906 108.491C272.64 108.54 271.618 108.064 270.842 107.062C270.066 106.06 269.678 104.546 269.678 102.519V78.1991C269.678 76.1725 270.066 74.0068 270.842 71.7021C271.618 69.3974 272.64 67.207 273.906 65.1309C275.173 63.0549 276.582 61.3655 278.135 60.0628L297.317 43.9674C298.869 42.6646 300.279 41.9886 301.545 41.9392C302.853 41.8555 303.874 42.3318 304.609 43.368C305.386 44.37 305.774 45.8843 305.774 47.911V65.351L277.706 88.9027V95.3827C277.706 95.6494 277.767 95.838 277.89 95.9485C278.053 95.9713 278.237 95.8971 278.441 95.7256L305.774 72.791V83.271L278.135 106.463ZM277.706 79.4627L297.746 62.6474V55.0474C297.746 54.7807 297.664 54.636 297.501 54.6131C297.378 54.5026 297.215 54.5331 297.01 54.7045L278.441 70.2856C278.237 70.4571 278.053 70.718 277.89 71.0685C277.767 71.3313 277.706 71.5961 277.706 71.8627V79.4627ZM313.037 77.1762V41.8161C313.037 39.7895 313.425 37.6238 314.202 35.3191C314.978 33.0144 315.999 30.824 317.266 28.748C318.573 26.6376 319.983 24.9482 321.494 23.6798L341.228 7.12156V17.6016L321.801 33.9027C321.597 34.0741 321.413 34.335 321.249 34.6855C321.127 34.9483 321.066 35.2131 321.066 35.4797V70.4397L313.037 77.1762ZM11.9503 429.818C10.3978 431.121 8.96783 431.814 7.66044 431.898C6.39392 431.947 5.37253 431.471 4.59627 430.469C3.82001 429.414 3.43188 427.873 3.43188 425.846V390.486C3.43188 388.459 3.82001 386.294 4.59627 383.989C5.37253 381.631 6.39392 379.414 7.66044 377.338C8.96783 375.227 10.3978 373.521 11.9503 372.218L47.4335 342.444V353.084L13.6662 381.418C13.0125 381.967 12.4814 382.653 12.0729 383.475C11.7052 384.264 11.5213 385.112 11.5213 386.018V416.738C11.5213 417.592 11.7052 418.131 12.0729 418.355C12.4814 418.493 13.0125 418.287 13.6662 417.738L47.4335 389.404V400.044L11.9503 429.818ZM63.2609 386.763C61.7084 388.066 60.2989 388.742 59.0323 388.792C57.7658 388.841 56.7444 388.365 55.9682 387.363C55.1919 386.361 54.8038 384.847 54.8038 382.82V332.18L62.8932 325.392V375.632C62.8932 375.899 62.9545 376.087 63.0771 376.198C63.2405 376.221 63.4243 376.146 63.6286 375.975L70.4311 370.267V380.747L63.2609 386.763ZM85.0156 368.509C83.4631 369.812 82.0331 370.505 80.7258 370.589C79.4592 370.638 78.4378 370.162 77.6616 369.16C76.9262 368.124 76.5585 366.592 76.5585 364.566V329.206L84.5866 322.469V357.429C84.5866 357.696 84.6479 357.884 84.7705 357.995C84.9339 358.018 85.1177 357.943 85.322 357.772L103.891 342.191C104.095 342.019 104.259 341.802 104.381 341.539C104.545 341.189 104.626 340.88 104.626 340.614V305.654L112.654 298.917V334.277C112.654 336.304 112.266 338.47 111.49 340.774C110.755 343.045 109.754 345.218 108.487 347.294C107.221 349.37 105.791 351.077 104.197 352.414L85.0156 368.509ZM119.08 339.926V278.326L127.108 271.589V286.789L146.719 270.334C148.272 269.031 149.681 268.355 150.948 268.306C152.255 268.222 153.276 268.698 154.012 269.734C154.788 270.736 155.176 272.251 155.176 274.277V298.597C155.176 300.624 154.788 302.79 154.012 305.094C153.276 307.365 152.255 309.555 150.948 311.666C149.681 313.742 148.272 315.431 146.719 316.734L119.08 339.926ZM127.844 322.092L146.413 306.511C146.617 306.339 146.78 306.122 146.903 305.86C147.066 305.509 147.148 305.2 147.148 304.934V281.414C147.148 281.147 147.066 281.002 146.903 280.98C146.78 280.869 146.617 280.899 146.413 281.071L127.844 296.652C127.639 296.823 127.456 297.084 127.292 297.435C127.17 297.698 127.108 297.962 127.108 298.229V321.749C127.108 322.016 127.17 322.204 127.292 322.315C127.456 322.338 127.639 322.263 127.844 322.092Z" fill="currentColor"/>
</g>
<defs>
<clipPath id="clip0_78_43">
<rect width="349" height="445" fill="white"/>
</clipPath>
</defs>
</svg>
