<svg width="72" height="804" viewBox="0 0 72 804" fill="none" xmlns="http://www.w3.org/2000/svg">
<mask id="path-1-outside-1_9_50" maskUnits="userSpaceOnUse" x="-1" y="2" width="67" height="802" fill="black">
<rect fill="white" x="-1" y="2" width="67" height="802"/>
<path d="M15 3.584L61.08 3.584V13.824L42.456 29.44L61.08 44.992V55.296H15V45.312H45.912L26.968 29.44L45.848 13.504L15 13.504V3.584ZM15 65.903H52.12V75.695H15V65.903ZM54.424 65.903H64.28V75.695H54.424V65.903ZM15 93.6315C15 91.9675 15.4267 90.4315 16.28 89.0235C17.1333 87.6155 18.264 86.4848 19.672 85.6315C21.08 84.7782 22.616 84.3515 24.28 84.3515H42.84C44.504 84.3515 46.04 84.7782 47.448 85.6315C48.856 86.4848 49.9867 87.6155 50.84 89.0235C51.6933 90.4315 52.12 91.9675 52.12 93.6315V121.92H42.328V94.1435H24.792V121.984H15V93.6315ZM15 131.491H42.84C44.504 131.491 46.04 131.917 47.448 132.771C48.856 133.624 49.9867 134.755 50.84 136.163C51.6933 137.571 52.12 139.128 52.12 140.835L52.12 161.315H42.328L42.328 141.283H15V131.491ZM15 177.907C15 176.243 15.4267 174.707 16.28 173.299C17.1333 171.891 18.264 170.76 19.672 169.907C21.08 169.053 22.616 168.627 24.28 168.627H42.84C44.504 168.627 46.04 169.053 47.448 169.907C48.856 170.76 49.9867 171.891 50.84 173.299C51.6933 174.707 52.12 176.243 52.12 177.907V196.979C52.12 198.685 51.6933 200.243 50.84 201.651C49.9867 203.059 48.856 204.168 47.448 204.979C46.04 205.832 44.504 206.259 42.84 206.259H24.28C22.616 206.259 21.08 205.832 19.672 204.979C18.264 204.168 17.1333 203.059 16.28 201.651C15.4267 200.243 15 198.685 15 196.979V177.907ZM24.792 178.419V196.467H42.328V178.419H24.792ZM15 249.756C15 248.007 15.4267 246.407 16.28 244.956C17.1333 243.548 18.264 242.417 19.672 241.564C21.1227 240.711 22.7227 240.284 24.472 240.284H51.608C53.3573 240.284 54.936 240.711 56.344 241.564C57.7947 242.417 58.9467 243.548 59.8 244.956C60.6533 246.407 61.08 248.007 61.08 249.756V286.236H51.096V252.316C51.096 251.633 50.9253 251.1 50.584 250.716C50.2427 250.375 49.7093 250.204 48.984 250.204H27.096C26.4133 250.204 25.88 250.375 25.496 250.716C25.1547 251.1 24.984 251.633 24.984 252.316V286.236H15V249.756ZM15 305.069C15 303.405 15.4267 301.869 16.28 300.461C17.1333 299.053 18.264 297.922 19.672 297.069C21.08 296.216 22.616 295.789 24.28 295.789H42.84C44.504 295.789 46.04 296.216 47.448 297.069C48.856 297.922 49.9867 299.053 50.84 300.461C51.6933 301.869 52.12 303.405 52.12 305.069L52.12 324.141C52.12 325.848 51.6933 327.405 50.84 328.813C49.9867 330.221 48.856 331.33 47.448 332.141C46.04 332.994 44.504 333.421 42.84 333.421H24.28C22.616 333.421 21.08 332.994 19.672 332.141C18.264 331.33 17.1333 330.221 16.28 328.813C15.4267 327.405 15 325.848 15 324.141V305.069ZM24.792 305.581V323.629H42.328L42.328 305.581H24.792ZM15 343.494H52.12L52.12 388.166C52.12 389.872 51.6933 391.43 50.84 392.838C49.9867 394.246 48.856 395.355 47.448 396.166C46.04 397.019 44.504 397.446 42.84 397.446H15V387.718H42.328L42.328 375.43H15V365.574H42.328V353.286H15V343.494ZM0.28 405.631H52.12V433.983C52.12 435.69 51.6933 437.247 50.84 438.655C49.9867 440.063 48.856 441.172 47.448 441.983C46.04 442.836 44.504 443.263 42.84 443.263H24.28C22.616 443.263 21.08 442.836 19.672 441.983C18.264 441.172 17.1333 440.063 16.28 438.655C15.4267 437.247 15 435.69 15 433.983V415.423H0.28V405.631ZM24.792 415.423V433.471H42.328V415.423H24.792ZM15 460.547C15 458.84 15.4267 457.283 16.28 455.875C17.1333 454.467 18.264 453.336 19.672 452.483C21.08 451.672 22.616 451.267 24.28 451.267H52.12V461.059H24.792V479.107H52.12V488.899H24.28C22.616 488.899 21.08 488.472 19.672 487.619C18.264 486.808 17.1333 485.699 16.28 484.291C15.4267 482.883 15 481.326 15 479.619V460.547ZM15 506.749C15 505.042 15.4267 503.485 16.28 502.077C17.1333 500.669 18.264 499.538 19.672 498.685C21.08 497.831 22.616 497.405 24.28 497.405H63.128V507.197H52.12V520.957H42.328V507.197H24.792V520.957H15V506.749ZM15 538.632C15 536.968 15.4267 535.432 16.28 534.024C17.1333 532.616 18.264 531.485 19.672 530.632C21.08 529.778 22.616 529.352 24.28 529.352H42.84C44.504 529.352 46.04 529.778 47.448 530.632C48.856 531.485 49.9867 532.616 50.84 534.024C51.6933 535.432 52.12 536.968 52.12 538.632L52.12 557.704C52.12 559.41 51.6933 560.968 50.84 562.376C49.9867 563.784 48.856 564.893 47.448 565.704C46.04 566.557 44.504 566.984 42.84 566.984H28.632V539.144H24.792V566.984H15V538.632ZM37.208 539.144V557.192H42.328L42.328 539.144H37.208ZM15 576.49H42.84C44.504 576.49 46.04 576.917 47.448 577.77C48.856 578.624 49.9867 579.754 50.84 581.162C51.6933 582.57 52.12 584.128 52.12 585.834V606.314H42.328V586.282H15V576.49ZM15 646.931C15 645.182 15.4267 643.582 16.28 642.131C17.1333 640.723 18.264 639.592 19.672 638.739C21.1227 637.886 22.7227 637.459 24.472 637.459H51.608C53.3573 637.459 54.936 637.886 56.344 638.739C57.7947 639.592 58.9467 640.723 59.8 642.131C60.6533 643.582 61.08 645.182 61.08 646.931V683.411H51.096V649.491C51.096 648.808 50.9253 648.275 50.584 647.891C50.2427 647.55 49.7093 647.379 48.984 647.379H27.096C26.4133 647.379 25.88 647.55 25.496 647.891C25.1547 648.275 24.984 648.808 24.984 649.491V683.411H15V646.931ZM15 702.308C15 700.644 15.4267 699.108 16.28 697.7C17.1333 696.292 18.264 695.161 19.672 694.308C21.08 693.455 22.616 693.028 24.28 693.028H64.344V702.884H24.792V710.372H15V702.308ZM15 727.822C15 726.115 15.4267 724.558 16.28 723.15C17.1333 721.742 18.264 720.611 19.672 719.758C21.08 718.947 22.616 718.542 24.28 718.542H52.12V728.334H24.792V746.382H52.12V756.174H24.28C22.616 756.174 21.08 755.747 19.672 754.894C18.264 754.083 17.1333 752.974 16.28 751.566C15.4267 750.158 15 748.601 15 746.894V727.822ZM15 764.618H64.28V774.41H52.12L52.12 792.97C52.12 794.677 51.6933 796.234 50.84 797.642C49.9867 799.05 48.856 800.16 47.448 800.97C46.04 801.824 44.504 802.25 42.84 802.25H24.28C22.616 802.25 21.08 801.824 19.672 800.97C18.264 800.16 17.1333 799.05 16.28 797.642C15.4267 796.234 15 794.677 15 792.97V764.618ZM24.792 774.41V792.458H42.328L42.328 774.41H24.792Z"/>
</mask>
<path d="M15 3.584V2.584H14V3.584H15ZM61.08 3.584L62.08 3.584V2.584L61.08 2.584V3.584ZM61.08 13.824L61.7225 14.5903L62.08 14.2905V13.824H61.08ZM42.456 29.44L41.8135 28.6737L40.8977 29.4416L41.815 30.2076L42.456 29.44ZM61.08 44.992H62.08V44.5242L61.721 44.2244L61.08 44.992ZM61.08 55.296V56.296H62.08V55.296H61.08ZM15 55.296H14V56.296H15V55.296ZM15 45.312V44.312H14V45.312H15ZM45.912 45.312V46.312H48.6626L46.5542 44.5455L45.912 45.312ZM26.968 29.44L26.323 28.6758L25.4143 29.4428L26.3258 30.2065L26.968 29.44ZM45.848 13.504L46.493 14.2682L48.5831 12.504H45.848V13.504ZM15 13.504H14V14.504H15V13.504ZM15 4.584L61.08 4.584V2.584L15 2.584V4.584ZM60.08 3.584V13.824H62.08V3.584L60.08 3.584ZM60.4375 13.0577L41.8135 28.6737L43.0985 30.2063L61.7225 14.5903L60.4375 13.0577ZM41.815 30.2076L60.439 45.7596L61.721 44.2244L43.097 28.6724L41.815 30.2076ZM60.08 44.992V55.296H62.08V44.992H60.08ZM61.08 54.296H15V56.296H61.08V54.296ZM16 55.296V45.312H14V55.296H16ZM15 46.312H45.912V44.312H15V46.312ZM46.5542 44.5455L27.6102 28.6735L26.3258 30.2065L45.2698 46.0785L46.5542 44.5455ZM27.613 30.2042L46.493 14.2682L45.203 12.7398L26.323 28.6758L27.613 30.2042ZM45.848 12.504L15 12.504V14.504L45.848 14.504V12.504ZM16 13.504V3.584H14V13.504H16ZM15 65.903V64.903H14V65.903H15ZM52.12 65.903H53.12V64.903H52.12V65.903ZM52.12 75.695V76.695H53.12V75.695H52.12ZM15 75.695H14V76.695H15V75.695ZM54.424 65.903V64.903H53.424V65.903H54.424ZM64.28 65.903H65.28V64.903H64.28V65.903ZM64.28 75.695V76.695H65.28V75.695H64.28ZM54.424 75.695H53.424V76.695H54.424V75.695ZM15 66.903H52.12V64.903H15V66.903ZM51.12 65.903V75.695H53.12V65.903H51.12ZM52.12 74.695H15V76.695H52.12V74.695ZM16 75.695V65.903H14V75.695H16ZM54.424 66.903H64.28V64.903H54.424V66.903ZM63.28 65.903L63.28 75.695H65.28V65.903H63.28ZM64.28 74.695H54.424V76.695H64.28V74.695ZM55.424 75.695V65.903H53.424V75.695H55.424ZM19.672 85.6315L19.1537 84.7763L19.1537 84.7763L19.672 85.6315ZM47.448 85.6315L47.9663 84.7763L47.9663 84.7763L47.448 85.6315ZM50.84 89.0235L49.9848 89.5418L49.9848 89.5418L50.84 89.0235ZM52.12 121.92V122.92H53.12V121.92H52.12ZM42.328 121.92H41.328V122.92H42.328V121.92ZM42.328 94.1435H43.328V93.1435H42.328V94.1435ZM24.792 94.1435V93.1435H23.792V94.1435H24.792ZM24.792 121.984V122.984H25.792V121.984H24.792ZM15 121.984H14V122.984H15V121.984ZM16 93.6315C16 92.1482 16.3776 90.7918 17.1352 89.5418L15.4248 88.5052C14.4757 90.0712 14 91.7868 14 93.6315H16ZM17.1352 89.5418C17.905 88.2716 18.9201 87.2565 20.1903 86.4867L19.1537 84.7763C17.6079 85.7132 16.3617 86.9594 15.4248 88.5052L17.1352 89.5418ZM20.1903 86.4867C21.4403 85.7292 22.7967 85.3515 24.28 85.3515V83.3515C22.4353 83.3515 20.7197 83.8272 19.1537 84.7763L20.1903 86.4867ZM24.28 85.3515H42.84V83.3515H24.28V85.3515ZM42.84 85.3515C44.3233 85.3515 45.6797 85.7292 46.9297 86.4867L47.9663 84.7763C46.4003 83.8272 44.6847 83.3515 42.84 83.3515V85.3515ZM46.9297 86.4867C48.1999 87.2565 49.215 88.2716 49.9848 89.5418L51.6952 88.5052C50.7583 86.9594 49.5121 85.7132 47.9663 84.7763L46.9297 86.4867ZM49.9848 89.5418C50.7424 90.7918 51.12 92.1482 51.12 93.6315H53.12C53.12 91.7868 52.6443 90.0712 51.6952 88.5052L49.9848 89.5418ZM51.12 93.6315V121.92H53.12V93.6315H51.12ZM52.12 120.92H42.328V122.92H52.12V120.92ZM43.328 121.92V94.1435H41.328V121.92H43.328ZM42.328 93.1435H24.792V95.1435H42.328V93.1435ZM23.792 94.1435V121.984H25.792V94.1435H23.792ZM24.792 120.984H15V122.984H24.792V120.984ZM16 121.984V93.6315H14V121.984H16ZM15 131.491V130.491H14V131.491H15ZM47.448 132.771L47.9663 131.915L47.448 132.771ZM50.84 136.163L49.9848 136.681L49.9848 136.681L50.84 136.163ZM52.12 161.315V162.315H53.12V161.315H52.12ZM42.328 161.315H41.328V162.315H42.328V161.315ZM42.328 141.283H43.328V140.283H42.328V141.283ZM15 141.283H14V142.283H15V141.283ZM15 132.491H42.84V130.491H15V132.491ZM42.84 132.491C44.3233 132.491 45.6797 132.868 46.9297 133.626L47.9663 131.915C46.4003 130.966 44.6847 130.491 42.84 130.491V132.491ZM46.9297 133.626C48.1999 134.396 49.215 135.411 49.9848 136.681L51.6952 135.644C50.7583 134.098 49.5121 132.852 47.9663 131.915L46.9297 133.626ZM49.9848 136.681C50.7398 137.927 51.12 139.304 51.12 140.835H53.12C53.12 138.952 52.6468 137.214 51.6952 135.644L49.9848 136.681ZM51.12 140.835L51.12 161.315H53.12L53.12 140.835H51.12ZM52.12 160.315H42.328V162.315H52.12V160.315ZM43.328 161.315L43.328 141.283H41.328L41.328 161.315H43.328ZM42.328 140.283H15V142.283H42.328V140.283ZM16 141.283V131.491H14V141.283H16ZM19.672 169.907L19.1537 169.051L19.1537 169.051L19.672 169.907ZM47.448 169.907L47.9663 169.051L47.9663 169.051L47.448 169.907ZM50.84 173.299L49.9848 173.817L49.9848 173.817L50.84 173.299ZM50.84 201.651L49.9848 201.132L49.9848 201.132L50.84 201.651ZM47.448 204.979L46.949 204.112L46.9393 204.117L46.9297 204.123L47.448 204.979ZM19.672 204.979L20.1903 204.123L20.1807 204.117L20.171 204.112L19.672 204.979ZM16.28 201.651L17.1352 201.132L16.28 201.651ZM24.792 178.419V177.419H23.792V178.419H24.792ZM24.792 196.467H23.792V197.467H24.792V196.467ZM42.328 196.467V197.467H43.328V196.467H42.328ZM42.328 178.419H43.328V177.419H42.328V178.419ZM16 177.907C16 176.423 16.3776 175.067 17.1352 173.817L15.4248 172.78C14.4757 174.346 14 176.062 14 177.907H16ZM17.1352 173.817C17.905 172.547 18.9201 171.532 20.1903 170.762L19.1537 169.051C17.6079 169.988 16.3617 171.234 15.4248 172.78L17.1352 173.817ZM20.1903 170.762C21.4403 170.004 22.7967 169.627 24.28 169.627V167.627C22.4353 167.627 20.7197 168.102 19.1537 169.051L20.1903 170.762ZM24.28 169.627H42.84V167.627H24.28V169.627ZM42.84 169.627C44.3233 169.627 45.6797 170.004 46.9297 170.762L47.9663 169.051C46.4003 168.102 44.6847 167.627 42.84 167.627V169.627ZM46.9297 170.762C48.1999 171.532 49.215 172.547 49.9848 173.817L51.6952 172.78C50.7583 171.234 49.5121 169.988 47.9663 169.051L46.9297 170.762ZM49.9848 173.817C50.7424 175.067 51.12 176.423 51.12 177.907H53.12C53.12 176.062 52.6443 174.346 51.6952 172.78L49.9848 173.817ZM51.12 177.907V196.979H53.12V177.907H51.12ZM51.12 196.979C51.12 198.509 50.7398 199.886 49.9848 201.132L51.6952 202.169C52.6468 200.599 53.12 198.861 53.12 196.979H51.12ZM49.9848 201.132C49.2177 202.398 48.2088 203.387 46.949 204.112L47.947 205.845C49.5032 204.949 50.7556 203.719 51.6952 202.169L49.9848 201.132ZM46.9297 204.123C45.6797 204.881 44.3233 205.259 42.84 205.259V207.259C44.6847 207.259 46.4003 206.783 47.9663 205.834L46.9297 204.123ZM42.84 205.259H24.28V207.259H42.84V205.259ZM24.28 205.259C22.7967 205.259 21.4403 204.881 20.1903 204.123L19.1537 205.834C20.7197 206.783 22.4353 207.259 24.28 207.259V205.259ZM20.171 204.112C18.9112 203.387 17.9023 202.398 17.1352 201.132L15.4248 202.169C16.3644 203.719 17.6168 204.949 19.173 205.845L20.171 204.112ZM17.1352 201.132C16.3802 199.886 16 198.509 16 196.979H14C14 198.861 14.4732 200.599 15.4248 202.169L17.1352 201.132ZM16 196.979V177.907H14V196.979H16ZM23.792 178.419V196.467H25.792V178.419H23.792ZM24.792 197.467H42.328V195.467H24.792V197.467ZM43.328 196.467V178.419H41.328V196.467H43.328ZM42.328 177.419H24.792V179.419H42.328V177.419ZM16.28 244.956L15.4247 244.438L15.4181 244.449L16.28 244.956ZM19.672 241.564L19.1649 240.702L19.1537 240.709L19.672 241.564ZM56.344 241.564L55.8257 242.419L55.837 242.426L56.344 241.564ZM59.8 244.956L60.662 244.449L60.6552 244.438L59.8 244.956ZM61.08 286.236V287.236H62.08V286.236H61.08ZM51.096 286.236H50.096V287.236H51.096V286.236ZM50.584 250.716L51.3314 250.052L51.3119 250.03L51.2911 250.009L50.584 250.716ZM25.496 250.716L24.8316 249.969L24.7877 250.008L24.7486 250.052L25.496 250.716ZM24.984 286.236V287.236H25.984V286.236H24.984ZM15 286.236H14V287.236H15V286.236ZM16 249.756C16 248.178 16.3826 246.754 17.1419 245.463L15.4181 244.449C14.4707 246.06 14 247.836 14 249.756H16ZM17.1352 245.474C17.905 244.204 18.9201 243.189 20.1903 242.419L19.1537 240.709C17.6079 241.646 16.3617 242.892 15.4248 244.438L17.1352 245.474ZM20.179 242.426C21.4698 241.667 22.8936 241.284 24.472 241.284V239.284C22.5517 239.284 20.7755 239.755 19.165 240.702L20.179 242.426ZM24.472 241.284H51.608V239.284H24.472V241.284ZM51.608 241.284C53.1865 241.284 54.5839 241.667 55.8257 242.419L56.8623 240.709C55.2881 239.755 53.5282 239.284 51.608 239.284V241.284ZM55.837 242.426C57.1482 243.197 58.1793 244.211 58.9448 245.474L60.6552 244.438C59.7141 242.885 58.4411 241.637 56.851 240.702L55.837 242.426ZM58.9381 245.463C59.6974 246.754 60.08 248.178 60.08 249.756H62.08C62.08 247.836 61.6093 246.06 60.6619 244.449L58.9381 245.463ZM60.08 249.756V286.236H62.08V249.756H60.08ZM61.08 285.236H51.096V287.236H61.08V285.236ZM52.096 286.236V252.316H50.096V286.236H52.096ZM52.096 252.316C52.096 251.47 51.8827 250.672 51.3314 250.052L49.8366 251.38C49.968 251.528 50.096 251.796 50.096 252.316H52.096ZM51.2911 250.009C50.6861 249.404 49.8429 249.204 48.984 249.204V251.204C49.5758 251.204 49.7992 251.345 49.8769 251.423L51.2911 250.009ZM48.984 249.204H27.096V251.204H48.984V249.204ZM27.096 249.204C26.2503 249.204 25.4518 249.417 24.8316 249.969L26.1604 251.463C26.3082 251.332 26.5764 251.204 27.096 251.204V249.204ZM24.7486 250.052C24.1973 250.672 23.984 251.47 23.984 252.316H25.984C25.984 251.796 26.112 251.528 26.2434 251.38L24.7486 250.052ZM23.984 252.316V286.236H25.984V252.316H23.984ZM24.984 285.236H15V287.236H24.984V285.236ZM16 286.236V249.756H14V286.236H16ZM19.672 297.069L19.1537 296.214L19.1537 296.214L19.672 297.069ZM47.448 297.069L47.9663 296.214L47.9663 296.214L47.448 297.069ZM50.84 300.461L49.9848 300.979L49.9848 300.979L50.84 300.461ZM50.84 328.813L49.9848 328.295L49.9848 328.295L50.84 328.813ZM47.448 332.141L46.949 331.274L46.9393 331.28L46.9297 331.286L47.448 332.141ZM19.672 332.141L20.1903 331.286L20.1807 331.28L20.171 331.274L19.672 332.141ZM16.28 328.813L17.1352 328.295L16.28 328.813ZM24.792 305.581V304.581H23.792V305.581H24.792ZM24.792 323.629H23.792V324.629H24.792V323.629ZM42.328 323.629V324.629H43.328V323.629H42.328ZM42.328 305.581H43.328V304.581H42.328V305.581ZM16 305.069C16 303.586 16.3776 302.229 17.1352 300.979L15.4248 299.943C14.4757 301.509 14 303.224 14 305.069H16ZM17.1352 300.979C17.905 299.709 18.9201 298.694 20.1903 297.924L19.1537 296.214C17.6079 297.151 16.3617 298.397 15.4248 299.943L17.1352 300.979ZM20.1903 297.924C21.4403 297.167 22.7967 296.789 24.28 296.789V294.789C22.4353 294.789 20.7197 295.265 19.1537 296.214L20.1903 297.924ZM24.28 296.789H42.84V294.789H24.28V296.789ZM42.84 296.789C44.3233 296.789 45.6797 297.167 46.9297 297.924L47.9663 296.214C46.4003 295.265 44.6847 294.789 42.84 294.789V296.789ZM46.9297 297.924C48.1999 298.694 49.215 299.709 49.9848 300.979L51.6952 299.943C50.7583 298.397 49.5121 297.151 47.9663 296.214L46.9297 297.924ZM49.9848 300.979C50.7424 302.229 51.12 303.586 51.12 305.069H53.12C53.12 303.224 52.6443 301.509 51.6952 299.943L49.9848 300.979ZM51.12 305.069L51.12 324.141H53.12L53.12 305.069H51.12ZM51.12 324.141C51.12 325.672 50.7398 327.049 49.9848 328.295L51.6952 329.331C52.6468 327.761 53.12 326.023 53.12 324.141H51.12ZM49.9848 328.295C49.2177 329.56 48.2088 330.549 46.949 331.274L47.947 333.008C49.5032 332.112 50.7556 330.882 51.6952 329.331L49.9848 328.295ZM46.9297 331.286C45.6797 332.043 44.3233 332.421 42.84 332.421V334.421C44.6847 334.421 46.4003 333.945 47.9663 332.996L46.9297 331.286ZM42.84 332.421H24.28V334.421H42.84V332.421ZM24.28 332.421C22.7967 332.421 21.4403 332.043 20.1903 331.286L19.1537 332.996C20.7197 333.945 22.4353 334.421 24.28 334.421V332.421ZM20.171 331.274C18.9112 330.549 17.9023 329.56 17.1352 328.295L15.4248 329.331C16.3644 330.882 17.6168 332.112 19.173 333.008L20.171 331.274ZM17.1352 328.295C16.3802 327.049 16 325.672 16 324.141H14C14 326.023 14.4732 327.761 15.4248 329.331L17.1352 328.295ZM16 324.141V305.069H14V324.141H16ZM23.792 305.581V323.629H25.792V305.581H23.792ZM24.792 324.629H42.328V322.629H24.792V324.629ZM43.328 323.629L43.328 305.581H41.328L41.328 323.629H43.328ZM42.328 304.581H24.792V306.581H42.328V304.581ZM15 343.494V342.494H14V343.494H15ZM52.12 343.494H53.12V342.494H52.12V343.494ZM50.84 392.838L49.9848 392.319L49.9848 392.319L50.84 392.838ZM47.448 396.166L46.949 395.299L46.9393 395.304L46.9297 395.31L47.448 396.166ZM15 397.446H14V398.446H15V397.446ZM15 387.718V386.718H14V387.718H15ZM42.328 387.718V388.718H43.328V387.718H42.328ZM42.328 375.43H43.328V374.43H42.328V375.43ZM15 375.43H14V376.43H15V375.43ZM15 365.574V364.574H14V365.574H15ZM42.328 365.574V366.574H43.328V365.574H42.328ZM42.328 353.286H43.328V352.286H42.328V353.286ZM15 353.286H14V354.286H15V353.286ZM15 344.494H52.12V342.494H15V344.494ZM51.12 343.494L51.12 388.166H53.12L53.12 343.494H51.12ZM51.12 388.166C51.12 389.696 50.7398 391.073 49.9848 392.319L51.6952 393.356C52.6468 391.786 53.12 390.048 53.12 388.166H51.12ZM49.9848 392.319C49.2177 393.585 48.2088 394.574 46.949 395.299L47.947 397.032C49.5032 396.136 50.7556 394.906 51.6952 393.356L49.9848 392.319ZM46.9297 395.31C45.6797 396.068 44.3233 396.446 42.84 396.446V398.446C44.6847 398.446 46.4003 397.97 47.9663 397.021L46.9297 395.31ZM42.84 396.446H15V398.446H42.84V396.446ZM16 397.446V387.718H14V397.446H16ZM15 388.718H42.328V386.718H15V388.718ZM43.328 387.718L43.328 375.43H41.328L41.328 387.718H43.328ZM42.328 374.43H15V376.43H42.328V374.43ZM16 375.43V365.574H14V375.43H16ZM15 366.574H42.328V364.574H15V366.574ZM43.328 365.574V353.286H41.328V365.574H43.328ZM42.328 352.286H15V354.286H42.328V352.286ZM16 353.286V343.494H14V353.286H16ZM0.28 405.631V404.631H-0.72V405.631H0.28ZM52.12 405.631H53.12V404.631H52.12V405.631ZM50.84 438.655L49.9848 438.137L49.9848 438.137L50.84 438.655ZM47.448 441.983L46.949 441.116L46.9393 441.122L46.9297 441.128L47.448 441.983ZM19.672 441.983L20.1903 441.128L20.1807 441.122L20.171 441.116L19.672 441.983ZM16.28 438.655L15.4248 439.173L15.4248 439.173L16.28 438.655ZM15 415.423H16V414.423H15V415.423ZM0.28 415.423H-0.72V416.423H0.28V415.423ZM24.792 415.423V414.423H23.792V415.423H24.792ZM24.792 433.471H23.792V434.471H24.792V433.471ZM42.328 433.471V434.471H43.328V433.471H42.328ZM42.328 415.423H43.328V414.423H42.328V415.423ZM0.28 406.631H52.12V404.631H0.28V406.631ZM51.12 405.631V433.983H53.12V405.631H51.12ZM51.12 433.983C51.12 435.514 50.7398 436.891 49.9848 438.137L51.6952 439.173C52.6468 437.603 53.12 435.865 53.12 433.983H51.12ZM49.9848 438.137C49.2177 439.402 48.2088 440.391 46.949 441.116L47.947 442.85C49.5032 441.954 50.7556 440.724 51.6952 439.173L49.9848 438.137ZM46.9297 441.128C45.6797 441.885 44.3233 442.263 42.84 442.263V444.263C44.6847 444.263 46.4003 443.787 47.9663 442.838L46.9297 441.128ZM42.84 442.263H24.28V444.263H42.84V442.263ZM24.28 442.263C22.7967 442.263 21.4403 441.885 20.1903 441.128L19.1537 442.838C20.7197 443.787 22.4353 444.263 24.28 444.263V442.263ZM20.171 441.116C18.9112 440.391 17.9023 439.402 17.1352 438.137L15.4248 439.173C16.3644 440.724 17.6168 441.954 19.173 442.85L20.171 441.116ZM17.1352 438.137C16.3802 436.891 16 435.514 16 433.983H14C14 435.865 14.4732 437.603 15.4248 439.173L17.1352 438.137ZM16 433.983V415.423H14V433.983H16ZM15 414.423H0.28V416.423H15V414.423ZM1.28 415.423V405.631H-0.72V415.423H1.28ZM23.792 415.423V433.471H25.792V415.423H23.792ZM24.792 434.471H42.328V432.471H24.792V434.471ZM43.328 433.471V415.423H41.328V433.471H43.328ZM42.328 414.423H24.792V416.423H42.328V414.423ZM16.28 455.875L15.4248 455.357L15.4248 455.357L16.28 455.875ZM19.672 452.483L19.173 451.616L19.1633 451.622L19.1537 451.628L19.672 452.483ZM52.12 451.267H53.12V450.267H52.12V451.267ZM52.12 461.059V462.059H53.12V461.059H52.12ZM24.792 461.059V460.059H23.792V461.059H24.792ZM24.792 479.107H23.792V480.107H24.792V479.107ZM52.12 479.107H53.12V478.107H52.12V479.107ZM52.12 488.899V489.899H53.12V488.899H52.12ZM19.672 487.619L20.1903 486.764L20.1807 486.758L20.171 486.752L19.672 487.619ZM16.28 484.291L17.1352 483.773L17.1352 483.773L16.28 484.291ZM16 460.547C16 459.016 16.3802 457.639 17.1352 456.393L15.4248 455.357C14.4732 456.927 14 458.665 14 460.547H16ZM17.1352 456.393C17.905 455.123 18.9201 454.108 20.1903 453.338L19.1537 451.628C17.6079 452.565 16.3617 453.811 15.4248 455.357L17.1352 456.393ZM20.171 453.35C21.4234 452.629 22.7867 452.267 24.28 452.267V450.267C22.4453 450.267 20.7366 450.716 19.173 451.616L20.171 453.35ZM24.28 452.267H52.12V450.267H24.28V452.267ZM51.12 451.267V461.059H53.12V451.267H51.12ZM52.12 460.059H24.792V462.059H52.12V460.059ZM23.792 461.059V479.107H25.792V461.059H23.792ZM24.792 480.107H52.12V478.107H24.792V480.107ZM51.12 479.107V488.899H53.12V479.107H51.12ZM52.12 487.899H24.28V489.899H52.12V487.899ZM24.28 487.899C22.7967 487.899 21.4403 487.521 20.1903 486.764L19.1537 488.474C20.7197 489.423 22.4353 489.899 24.28 489.899V487.899ZM20.171 486.752C18.9112 486.027 17.9023 485.038 17.1352 483.773L15.4248 484.809C16.3644 486.36 17.6168 487.59 19.173 488.486L20.171 486.752ZM17.1352 483.773C16.3802 482.527 16 481.15 16 479.619H14C14 481.501 14.4732 483.239 15.4248 484.809L17.1352 483.773ZM16 479.619V460.547H14V479.619H16ZM16.28 502.077L15.4248 501.558L15.4248 501.558L16.28 502.077ZM19.672 498.685L20.1903 499.54L20.1903 499.54L19.672 498.685ZM63.128 497.405H64.128V496.405H63.128V497.405ZM63.128 507.197V508.197H64.128V507.197H63.128ZM52.12 507.197V506.197H51.12V507.197H52.12ZM52.12 520.957V521.957H53.12V520.957H52.12ZM42.328 520.957H41.328V521.957H42.328V520.957ZM42.328 507.197H43.328V506.197H42.328V507.197ZM24.792 507.197V506.197H23.792V507.197H24.792ZM24.792 520.957V521.957H25.792V520.957H24.792ZM15 520.957H14V521.957H15V520.957ZM16 506.749C16 505.218 16.3802 503.841 17.1352 502.595L15.4248 501.558C14.4732 503.128 14 504.866 14 506.749H16ZM17.1352 502.595C17.905 501.325 18.9201 500.31 20.1903 499.54L19.1537 497.829C17.6079 498.766 16.3617 500.012 15.4248 501.558L17.1352 502.595ZM20.1903 499.54C21.4403 498.782 22.7967 498.405 24.28 498.405V496.405C22.4353 496.405 20.7197 496.88 19.1537 497.829L20.1903 499.54ZM24.28 498.405H63.128V496.405H24.28V498.405ZM62.128 497.405V507.197H64.128V497.405H62.128ZM63.128 506.197H52.12V508.197H63.128V506.197ZM51.12 507.197V520.957H53.12V507.197H51.12ZM52.12 519.957H42.328V521.957H52.12V519.957ZM43.328 520.957V507.197H41.328V520.957H43.328ZM42.328 506.197H24.792V508.197H42.328V506.197ZM23.792 507.197V520.957H25.792V507.197H23.792ZM24.792 519.957H15V521.957H24.792V519.957ZM16 520.957V506.749H14V520.957H16ZM19.672 530.632L19.1537 529.776L19.1537 529.776L19.672 530.632ZM47.448 530.632L47.9663 529.776L47.9663 529.776L47.448 530.632ZM50.84 534.024L49.9848 534.542L49.9848 534.542L50.84 534.024ZM50.84 562.376L49.9848 561.857L49.9848 561.857L50.84 562.376ZM47.448 565.704L46.949 564.837L46.9393 564.843L46.9297 564.848L47.448 565.704ZM28.632 566.984H27.632V567.984H28.632V566.984ZM28.632 539.144H29.632V538.144H28.632V539.144ZM24.792 539.144V538.144H23.792V539.144H24.792ZM24.792 566.984V567.984H25.792V566.984H24.792ZM15 566.984H14V567.984H15V566.984ZM37.208 539.144V538.144H36.208V539.144H37.208ZM37.208 557.192H36.208V558.192H37.208V557.192ZM42.328 557.192V558.192H43.328V557.192H42.328ZM42.328 539.144H43.328V538.144H42.328V539.144ZM16 538.632C16 537.148 16.3776 535.792 17.1352 534.542L15.4248 533.505C14.4757 535.071 14 536.787 14 538.632H16ZM17.1352 534.542C17.905 533.272 18.9201 532.257 20.1903 531.487L19.1537 529.776C17.6079 530.713 16.3617 531.959 15.4248 533.505L17.1352 534.542ZM20.1903 531.487C21.4403 530.729 22.7967 530.352 24.28 530.352V528.352C22.4353 528.352 20.7197 528.827 19.1537 529.776L20.1903 531.487ZM24.28 530.352H42.84V528.352H24.28V530.352ZM42.84 530.352C44.3233 530.352 45.6797 530.729 46.9297 531.487L47.9663 529.776C46.4003 528.827 44.6847 528.352 42.84 528.352V530.352ZM46.9297 531.487C48.1999 532.257 49.215 533.272 49.9848 534.542L51.6952 533.505C50.7583 531.959 49.5121 530.713 47.9663 529.776L46.9297 531.487ZM49.9848 534.542C50.7424 535.792 51.12 537.148 51.12 538.632H53.12C53.12 536.787 52.6443 535.071 51.6952 533.505L49.9848 534.542ZM51.12 538.632L51.12 557.704H53.12L53.12 538.632H51.12ZM51.12 557.704C51.12 559.234 50.7398 560.611 49.9848 561.857L51.6952 562.894C52.6468 561.324 53.12 559.586 53.12 557.704H51.12ZM49.9848 561.857C49.2177 563.123 48.2088 564.112 46.949 564.837L47.947 566.57C49.5032 565.674 50.7556 564.444 51.6952 562.894L49.9848 561.857ZM46.9297 564.848C45.6797 565.606 44.3233 565.984 42.84 565.984V567.984C44.6847 567.984 46.4003 567.508 47.9663 566.559L46.9297 564.848ZM42.84 565.984H28.632V567.984H42.84V565.984ZM29.632 566.984V539.144H27.632V566.984H29.632ZM28.632 538.144H24.792V540.144H28.632V538.144ZM23.792 539.144V566.984H25.792V539.144H23.792ZM24.792 565.984H15V567.984H24.792V565.984ZM16 566.984V538.632H14V566.984H16ZM36.208 539.144V557.192H38.208V539.144H36.208ZM37.208 558.192H42.328V556.192H37.208V558.192ZM43.328 557.192L43.328 539.144H41.328L41.328 557.192H43.328ZM42.328 538.144H37.208V540.144H42.328V538.144ZM15 576.49V575.49H14V576.49H15ZM47.448 577.77L47.9663 576.915L47.448 577.77ZM50.84 581.162L49.9848 581.681L49.9848 581.681L50.84 581.162ZM52.12 606.314V607.314H53.12V606.314H52.12ZM42.328 606.314H41.328V607.314H42.328V606.314ZM42.328 586.282H43.328V585.282H42.328V586.282ZM15 586.282H14V587.282H15V586.282ZM15 577.49H42.84V575.49H15V577.49ZM42.84 577.49C44.3233 577.49 45.6797 577.868 46.9297 578.626L47.9663 576.915C46.4003 575.966 44.6847 575.49 42.84 575.49V577.49ZM46.9297 578.626C48.1999 579.395 49.215 580.411 49.9848 581.681L51.6952 580.644C50.7583 579.098 49.5121 577.852 47.9663 576.915L46.9297 578.626ZM49.9848 581.681C50.7398 582.927 51.12 584.304 51.12 585.834H53.12C53.12 583.952 52.6468 582.214 51.6952 580.644L49.9848 581.681ZM51.12 585.834V606.314H53.12V585.834H51.12ZM52.12 605.314H42.328V607.314H52.12V605.314ZM43.328 606.314V586.282H41.328V606.314H43.328ZM42.328 585.282H15V587.282H42.328V585.282ZM16 586.282V576.49H14V586.282H16ZM16.28 642.131L15.4247 641.613L15.4181 641.624L16.28 642.131ZM19.672 638.739L19.1649 637.877L19.1537 637.884L19.672 638.739ZM56.344 638.739L55.8257 639.594L55.837 639.601L56.344 638.739ZM59.8 642.131L60.662 641.624L60.6552 641.613L59.8 642.131ZM61.08 683.411V684.411H62.08V683.411H61.08ZM51.096 683.411H50.096V684.411H51.096V683.411ZM50.584 647.891L51.3314 647.227L51.3119 647.205L51.2911 647.184L50.584 647.891ZM25.496 647.891L24.8316 647.144L24.7877 647.183L24.7486 647.227L25.496 647.891ZM24.984 683.411V684.411H25.984V683.411H24.984ZM15 683.411H14V684.411H15V683.411ZM16 646.931C16 645.353 16.3826 643.929 17.1419 642.638L15.4181 641.624C14.4707 643.235 14 645.011 14 646.931H16ZM17.1352 642.649C17.905 641.379 18.9201 640.364 20.1903 639.594L19.1537 637.884C17.6079 638.821 16.3617 640.067 15.4248 641.613L17.1352 642.649ZM20.179 639.601C21.4698 638.842 22.8936 638.459 24.472 638.459L24.472 636.459C22.5517 636.459 20.7755 636.93 19.165 637.877L20.179 639.601ZM24.472 638.459H51.608V636.459H24.472L24.472 638.459ZM51.608 638.459C53.1865 638.459 54.5839 638.842 55.8257 639.594L56.8623 637.884C55.2881 636.93 53.5282 636.459 51.608 636.459V638.459ZM55.837 639.601C57.1482 640.372 58.1793 641.386 58.9448 642.649L60.6552 641.613C59.7141 640.06 58.4411 638.812 56.851 637.877L55.837 639.601ZM58.9381 642.638C59.6974 643.929 60.08 645.353 60.08 646.931H62.08C62.08 645.011 61.6093 643.235 60.6619 641.624L58.9381 642.638ZM60.08 646.931V683.411H62.08V646.931H60.08ZM61.08 682.411H51.096V684.411H61.08V682.411ZM52.096 683.411V649.491H50.096V683.411H52.096ZM52.096 649.491C52.096 648.645 51.8827 647.847 51.3314 647.227L49.8366 648.555C49.968 648.703 50.096 648.971 50.096 649.491H52.096ZM51.2911 647.184C50.6861 646.579 49.8429 646.379 48.984 646.379V648.379C49.5758 648.379 49.7992 648.52 49.8769 648.598L51.2911 647.184ZM48.984 646.379H27.096V648.379H48.984V646.379ZM27.096 646.379C26.2503 646.379 25.4518 646.592 24.8316 647.144L26.1604 648.638C26.3082 648.507 26.5764 648.379 27.096 648.379V646.379ZM24.7486 647.227C24.1973 647.847 23.984 648.645 23.984 649.491H25.984C25.984 648.971 26.112 648.703 26.2434 648.555L24.7486 647.227ZM23.984 649.491V683.411H25.984V649.491H23.984ZM24.984 682.411H15V684.411H24.984V682.411ZM16 683.411V646.931H14V683.411H16ZM16.28 697.7L15.4248 697.182L15.4248 697.182L16.28 697.7ZM19.672 694.308L20.1903 695.163L20.1903 695.163L19.672 694.308ZM64.344 693.028H65.344V692.028H64.344V693.028ZM64.344 702.884V703.884H65.344V702.884H64.344ZM24.792 702.884V701.884H23.792V702.884H24.792ZM24.792 710.372V711.372H25.792V710.372H24.792ZM15 710.372H14V711.372H15V710.372ZM16 702.308C16 700.825 16.3776 699.468 17.1352 698.218L15.4248 697.182C14.4757 698.748 14 700.463 14 702.308H16ZM17.1352 698.218C17.905 696.948 18.9201 695.933 20.1903 695.163L19.1537 693.453C17.6079 694.39 16.3617 695.636 15.4248 697.182L17.1352 698.218ZM20.1903 695.163C21.4403 694.406 22.7967 694.028 24.28 694.028V692.028C22.4353 692.028 20.7197 692.504 19.1537 693.453L20.1903 695.163ZM24.28 694.028H64.344V692.028H24.28V694.028ZM63.344 693.028V702.884H65.344V693.028H63.344ZM64.344 701.884H24.792V703.884H64.344V701.884ZM23.792 702.884V710.372H25.792V702.884H23.792ZM24.792 709.372H15V711.372H24.792V709.372ZM16 710.372V702.308H14V710.372H16ZM16.28 723.15L15.4248 722.632L15.4248 722.632L16.28 723.15ZM19.672 719.758L19.173 718.891L19.1633 718.897L19.1537 718.903L19.672 719.758ZM52.12 718.542H53.12V717.542H52.12V718.542ZM52.12 728.334V729.334H53.12V728.334H52.12ZM24.792 728.334V727.334H23.792V728.334H24.792ZM24.792 746.382H23.792V747.382H24.792V746.382ZM52.12 746.382H53.12V745.382H52.12V746.382ZM52.12 756.174V757.174H53.12V756.174H52.12ZM19.672 754.894L20.1903 754.039L20.1807 754.033L20.171 754.027L19.672 754.894ZM16.28 751.566L17.1352 751.048L17.1352 751.048L16.28 751.566ZM16 727.822C16 726.291 16.3802 724.914 17.1352 723.668L15.4248 722.632C14.4732 724.202 14 725.94 14 727.822H16ZM17.1352 723.668C17.905 722.398 18.9201 721.383 20.1903 720.613L19.1537 718.903C17.6079 719.84 16.3617 721.086 15.4248 722.632L17.1352 723.668ZM20.171 720.625C21.4234 719.904 22.7867 719.542 24.28 719.542V717.542C22.4453 717.542 20.7366 717.991 19.173 718.891L20.171 720.625ZM24.28 719.542H52.12V717.542H24.28V719.542ZM51.12 718.542V728.334H53.12V718.542H51.12ZM52.12 727.334H24.792V729.334H52.12V727.334ZM23.792 728.334V746.382H25.792V728.334H23.792ZM24.792 747.382H52.12V745.382H24.792V747.382ZM51.12 746.382V756.174H53.12V746.382H51.12ZM52.12 755.174H24.28V757.174H52.12V755.174ZM24.28 755.174C22.7967 755.174 21.4403 754.796 20.1903 754.039L19.1537 755.749C20.7197 756.698 22.4353 757.174 24.28 757.174V755.174ZM20.171 754.027C18.9112 753.302 17.9023 752.313 17.1352 751.048L15.4248 752.084C16.3644 753.635 17.6168 754.865 19.173 755.761L20.171 754.027ZM17.1352 751.048C16.3802 749.802 16 748.425 16 746.894H14C14 748.776 14.4732 750.514 15.4248 752.084L17.1352 751.048ZM16 746.894V727.822H14V746.894H16ZM15 764.618V763.618H14V764.618H15ZM64.28 764.618H65.28V763.618H64.28V764.618ZM64.28 774.41V775.41H65.28V774.41H64.28ZM52.12 774.41V773.41H51.12V774.41H52.12ZM50.84 797.642L49.9848 797.124L49.9848 797.124L50.84 797.642ZM47.448 800.97L46.949 800.104L46.9393 800.109L46.9297 800.115L47.448 800.97ZM19.672 800.97L20.1903 800.115L20.1807 800.109L20.171 800.104L19.672 800.97ZM16.28 797.642L15.4248 798.161L15.4248 798.161L16.28 797.642ZM24.792 774.41V773.41H23.792V774.41H24.792ZM24.792 792.458H23.792V793.458H24.792V792.458ZM42.328 792.458V793.458H43.328V792.458H42.328ZM42.328 774.41H43.328V773.41H42.328V774.41ZM15 765.618H64.28V763.618H15V765.618ZM63.28 764.618L63.28 774.41H65.28V764.618H63.28ZM64.28 773.41H52.12V775.41H64.28V773.41ZM51.12 774.41L51.12 792.97H53.12L53.12 774.41H51.12ZM51.12 792.97C51.12 794.501 50.7398 795.878 49.9848 797.124L51.6952 798.161C52.6468 796.591 53.12 794.853 53.12 792.97H51.12ZM49.9848 797.124C49.2177 798.39 48.2088 799.379 46.949 800.104L47.947 801.837C49.5032 800.941 50.7556 799.711 51.6952 798.161L49.9848 797.124ZM46.9297 800.115C45.6797 800.873 44.3233 801.25 42.84 801.25V803.25C44.6847 803.25 46.4003 802.775 47.9663 801.826L46.9297 800.115ZM42.84 801.25H24.28V803.25H42.84V801.25ZM24.28 801.25C22.7967 801.25 21.4403 800.873 20.1903 800.115L19.1537 801.826C20.7197 802.775 22.4353 803.25 24.28 803.25V801.25ZM20.171 800.104C18.9112 799.379 17.9023 798.39 17.1352 797.124L15.4248 798.161C16.3644 799.711 17.6168 800.941 19.173 801.837L20.171 800.104ZM17.1352 797.124C16.3802 795.878 16 794.501 16 792.97H14C14 794.853 14.4732 796.591 15.4248 798.161L17.1352 797.124ZM16 792.97V764.618H14V792.97H16ZM23.792 774.41V792.458H25.792V774.41H23.792ZM24.792 793.458H42.328V791.458H24.792V793.458ZM43.328 792.458L43.328 774.41H41.328L41.328 792.458H43.328ZM42.328 773.41H24.792V775.41H42.328V773.41Z" fill="black" mask="url(#path-1-outside-1_9_50)"/>
</svg>
